<svg width="36" height="36" viewBox="0 0 36 36" fill="none" xmlns="http://www.w3.org/2000/svg">
<rect width="36" height="36" rx="18" fill="#21325E"/>
<path d="M3.36207 0H0.258621C0.103448 0 0 0.106667 0 0.266667V10.4C0 10.56 0.103448 10.6667 0.258621 10.6667H3.36207C3.51724 10.6667 3.62069 10.56 3.62069 10.4V0.266667C3.62069 0.106667 3.51724 0 3.36207 0Z" transform="translate(10 15.3334)" fill="white"/>
<path d="M6.67241 0C5.53448 0 4.34483 0.48 3.62069 1.01333V0.8C3.62069 0.64 3.51724 0.533333 3.36207 0.533333H0.258621C0.103448 0.533333 0 0.64 0 0.8V10.9333C0 11.0933 0.103448 11.2 0.258621 11.2H3.36207C3.51724 11.2 3.62069 11.0933 3.62069 10.9333V3.84C4.34483 3.14667 5.32759 2.98667 5.84483 3.57333C6.10345 3.84 6.2069 4.26667 6.2069 4.8V10.9333C6.2069 11.0933 6.31034 11.2 6.46552 11.2H9.56897C9.72414 11.2 9.82759 11.0933 9.82759 10.9333V4C9.77586 0.533333 7.81034 0 6.67241 0Z" transform="translate(15.1729 14.8)" fill="white"/>
<path d="M1.81034 0C0.827586 0 0 0.853333 0 1.86667C0 2.88 0.827586 3.73333 1.81034 3.73333C2.7931 3.73333 3.62069 2.88 3.62069 1.86667C3.62069 0.853333 2.7931 0 1.81034 0Z" transform="translate(10 10)" fill="white"/>
</svg>
