<svg width="183px" height="207px" viewBox="0 0 183 207" version="1.1" xmlns="http://www.w3.org/2000/svg" xmlns:xlink="http://www.w3.org/1999/xlink">
    <!-- Generator: Sketch 48.2 (47327) - http://www.bohemiancoding.com/sketch -->
    <desc>Created with Sketch.</desc>
    <defs></defs>
    <g id="Page-1" stroke="none" stroke-width="1" fill="none" fill-rule="evenodd">
        <g id="WEB-1" transform="translate(-1371.000000, -1504.000000)" stroke-width="9">
            <g id="页面「TECHNOLOGY」" transform="translate(166.000000, 1267.000000)">
                <g id="SCALABLE" transform="translate(1143.000000, 237.000000)">
                    <g id="Group" transform="translate(63.000000, 0.000000)">
                        <path d="M52.2,66.9 L77.6,52.2" id="Shape_2012_" stroke="#2647A6"></path>
                        <path d="M128.3,184.6 L102.9,169.9" id="Shape_2011_" stroke="#2647A6"></path>
                        <path d="M128.3,140.5 L102.9,155.2" id="Shape_2010_" stroke="#2647A6"></path>
                        <path d="M52.2,140.5 L77.6,155.2" id="Shape_2009_" stroke="#2647A6"></path>
                        <path d="M52.2,184.6 L77.6,169.9" id="Shape_2008_" stroke="#2647A6"></path>
                        <path d="M77.5,155.2 L52.1,140.5" id="Shape_2007_" stroke="#2647A6"></path>
                        <path d="M89.2,118.4 L89.2,147.8" id="Shape_2006_" stroke="#2647A6"></path>
                        <path d="M102.9,155.2 L128.3,140.5" id="Shape_2005_" stroke="#2647A6"></path>
                        <path d="M89.2,147.8 L89.2,133.1" id="Shape_2004_" stroke="#2647A6"></path>
                        <path d="M52.2,184.6 L64.9,177.2" id="Shape_2003_" stroke="#2647A6"></path>
                        <path d="M179.1,96.3 L153.7,81.6" id="Shape_1992_" stroke="#FFFFFF"></path>
                        <path d="M179.1,52.2 L153.7,66.9" id="Shape_1991_" stroke="#FFFFFF"></path>
                        <path d="M139.8,30.1 L139.8,59.5" id="Shape_1990_" stroke="#FFFFFF"></path>
                        <path d="M102.9,52.2 L128.3,66.9" id="Shape_1989_" stroke="#FFFFFF"></path>
                        <path d="M77.5,52.2 L52.1,66.9" id="Shape_1988_" stroke="#FFFFFF"></path>
                        <path d="M38.7,177.2 L38.7,147.8" id="Shape_1987_" stroke="#FFFFFF"></path>
                        <path d="M1.4,111 L26.8,125.7" id="Shape_1986_" stroke="#FFFFFF"></path>
                        <path d="M26.8,140.5 L1.4,155.2" id="Shape_1985_" stroke="#FFFFFF"></path>
                        <path d="M89.2,88.9 L89.2,59.5" id="Shape_1984_" stroke="#FFFFFF"></path>
                        <path d="M77.5,111 L52.1,125.7" id="Shape_1983_" stroke="#FFFFFF"></path>
                        <path d="M128.3,81.6 L102.9,96.3" id="Shape_1982_" stroke="#FFFFFF"></path>
                        <path d="M139.8,177.2 L139.8,147.8" id="Shape_1981_" stroke="#FFFFFF"></path>
                        <path d="M179.1,111 L153.7,125.7" id="Shape_1980_" stroke="#FFFFFF"></path>
                        <path d="M153.7,140.5 L179.1,155.2" id="Shape_1979_" stroke="#FFFFFF"></path>
                        <path d="M38.7,30.1 L38.7,59.5" id="Shape_1978_" stroke="#FFFFFF"></path>
                        <path d="M1.4,52.2 L26.8,66.9" id="Shape_1977_" stroke="#FFFFFF"></path>
                        <path d="M1.4,96.3 L26.8,81.6" id="Shape_1976_" stroke="#FFFFFF"></path>
                        <path d="M89.2,206.7 L89.2,177.3" id="Shape_1975_" stroke="#FFFFFF"></path>
                        <path d="M102.9,169.9 L128.3,184.6" id="Shape_1974_" stroke="#FFFFFF"></path>
                        <path d="M77.5,169.9 L52.1,184.6" id="Shape_1973_" stroke="#FFFFFF"></path>
                        <path d="M52.2,140.5 L77.6,155.2" id="Shape_1972_" stroke="#FFFFFF"></path>
                        <path d="M128.3,140.5 L102.9,155.2" id="Shape_1971_" stroke="#FFFFFF"></path>
                        <path d="M89.2,147.8 L89.2,118.4" id="Shape_1970_" stroke="#FFFFFF"></path>
                        <path d="M128.5,22.5 L103.1,37.2" id="Shape_1969_" stroke="#FFFFFF"></path>
                        <path d="M89.1,0.5 L89.1,29.9" id="Shape_1968_" stroke="#FFFFFF"></path>
                        <path d="M52.1,22.5 L77.5,37.2" id="Shape_1967_" stroke="#FFFFFF"></path>
                        <path d="M102.9,111 L128.3,125.7" id="Shape_891_" stroke="#FF4229"></path>
                        <path d="M139.8,118.4 L139.8,89" id="Shape_890_" stroke="#FF4229"></path>
                        <path d="M38.7,118.4 L38.7,89" id="Shape_889_" stroke="#FF4229"></path>
                        <path d="M52.2,81.6 L77.6,96.3" id="Shape_888_" stroke="#FF4229"></path>
                    </g>
                </g>
            </g>
        </g>
    </g>
</svg>