<svg width="184px" height="184px" viewBox="0 0 184 184" version="1.1" xmlns="http://www.w3.org/2000/svg" xmlns:xlink="http://www.w3.org/1999/xlink">
    <!-- Generator: Sketch 48.2 (47327) - http://www.bohemiancoding.com/sketch -->
    <desc>Created with Sketch.</desc>
    <defs></defs>
    <g id="Page-1" stroke="none" stroke-width="1" fill="none" fill-rule="evenodd">
        <g id="Artboard" transform="translate(-490.000000, -1301.000000)" fill-rule="nonzero">
            <g id="01-TECHNOLOGY" transform="translate(190.000000, 1281.000000)">
                <g id="icon「高效」" transform="translate(300.000000, 20.000000)">
                    <path d="M61,81.2 L90.3,105.6" id="Shape" fill="#D8D8D8"></path>
                    <rect id="Rectangle-path" fill="#FFFFFF" transform="translate(75.615010, 93.342370) rotate(-50.168752) translate(-75.615010, -93.342370) " x="72.1151663" y="74.2432232" width="6.9996873" height="38.1982936"></rect>
                    <g id="Path-6_3_" transform="translate(106.000000, 53.000000)" fill="#FFFFFF">
                        <rect id="Rectangle-path" transform="translate(27.959155, 28.228075) rotate(-45.996700) translate(-27.959155, -28.228075) " x="-7.8908554" y="24.728074" width="71.7000208" height="7.00000203"></rect>
                    </g>
                    <g id="Path-4_3_" fill="#FFFFFF">
                        <polygon id="Shape" points="184 183.7 0.5 183.7 0.5 0.2 7.5 0.2 7.5 176.7 184 176.7"></polygon>
                    </g>
                    <g id="Oval-Copy_3_" transform="translate(86.000000, 96.000000)" fill="#33C69B">
                        <path d="M14,27.7 C6.6,27.7 0.5,21.6 0.5,14.2 C0.5,6.8 6.6,0.7 14,0.7 C21.4,0.7 27.5,6.8 27.5,14.2 C27.5,21.6 21.4,27.7 14,27.7 Z M14,7.7 C10.4,7.7 7.5,10.6 7.5,14.2 C7.5,17.8 10.4,20.7 14,20.7 C17.6,20.7 20.5,17.8 20.5,14.2 C20.5,10.6 17.6,7.7 14,7.7 Z" id="Shape"></path>
                    </g>
                    <g id="Path-5_3_" transform="translate(22.000000, 78.000000)" fill="#FFFFFF">
                        <path d="M5.2,25 L0.8,19.6 C0.9,19.5 15.3,7.9 22.3,0.8 L27.3,5.7 C20,13.1 5.8,24.5 5.2,25 Z" id="Shape"></path>
                    </g>
                    <g id="Rectangle-5_3_" transform="translate(148.000000, 50.000000)" fill="#FFFFFF">
                        <polygon id="Shape" points="16 16.2 0 0.2 16 0.2"></polygon>
                    </g>
                    <g id="Line_12_" transform="translate(52.000000, 94.000000)" fill="#FFFFFF">
                        <path d="M1.5,77.7 L0.5,77.7 L0.5,76.2 L1.5,76.2 L1.5,77.7 Z M1.5,75.2 L0.5,75.2 L0.5,72.2 L1.5,72.2 L1.5,75.2 Z M1.5,71.2 L0.5,71.2 L0.5,68.2 L1.5,68.2 L1.5,71.2 Z M1.5,67.2 L0.5,67.2 L0.5,64.2 L1.5,64.2 L1.5,67.2 Z M1.5,63.2 L0.5,63.2 L0.5,60.2 L1.5,60.2 L1.5,63.2 Z M1.5,59.2 L0.5,59.2 L0.5,56.2 L1.5,56.2 L1.5,59.2 Z M1.5,55.2 L0.5,55.2 L0.5,52.2 L1.5,52.2 L1.5,55.2 Z M1.5,51.2 L0.5,51.2 L0.5,48.2 L1.5,48.2 L1.5,51.2 Z M1.5,47.2 L0.5,47.2 L0.5,44.2 L1.5,44.2 L1.5,47.2 Z M1.5,43.2 L0.5,43.2 L0.5,40.2 L1.5,40.2 L1.5,43.2 Z M1.5,39.2 L0.5,39.2 L0.5,36.2 L1.5,36.2 L1.5,39.2 Z M1.5,35.2 L0.5,35.2 L0.5,32.2 L1.5,32.2 L1.5,35.2 Z M1.5,31.2 L0.5,31.2 L0.5,28.2 L1.5,28.2 L1.5,31.2 Z M1.5,27.2 L0.5,27.2 L0.5,24.2 L1.5,24.2 L1.5,27.2 Z M1.5,23.2 L0.5,23.2 L0.5,20.2 L1.5,20.2 L1.5,23.2 Z M1.5,19.2 L0.5,19.2 L0.5,16.2 L1.5,16.2 L1.5,19.2 Z M1.5,15.2 L0.5,15.2 L0.5,12.2 L1.5,12.2 L1.5,15.2 Z M1.5,11.2 L0.5,11.2 L0.5,8.2 L1.5,8.2 L1.5,11.2 Z M1.5,7.2 L0.5,7.2 L0.5,4.2 L1.5,4.2 L1.5,7.2 Z M1.5,3.2 L0.5,3.2 L0.5,0.2 L1.5,0.2 L1.5,3.2 Z" id="Shape"></path>
                    </g>
                    <g id="Line-Copy_3_" transform="translate(98.000000, 127.000000)" fill="#FFFFFF">
                        <path d="M1.5,43.4 L0.5,43.4 L0.5,40.4 L1.5,40.4 L1.5,43.4 Z M1.5,39.4 L0.5,39.4 L0.5,36.4 L1.5,36.4 L1.5,39.4 Z M1.5,35.4 L0.5,35.4 L0.5,32.4 L1.5,32.4 L1.5,35.4 Z M1.5,31.4 L0.5,31.4 L0.5,28.4 L1.5,28.4 L1.5,31.4 Z M1.5,27.4 L0.5,27.4 L0.5,24.4 L1.5,24.4 L1.5,27.4 Z M1.5,23.4 L0.5,23.4 L0.5,20.4 L1.5,20.4 L1.5,23.4 Z M1.5,19.4 L0.5,19.4 L0.5,16.4 L1.5,16.4 L1.5,19.4 Z M1.5,15.4 L0.5,15.4 L0.5,12.4 L1.5,12.4 L1.5,15.4 Z M1.5,11.4 L0.5,11.4 L0.5,8.4 L1.5,8.4 L1.5,11.4 Z M1.5,7.4 L0.5,7.4 L0.5,4.4 L1.5,4.4 L1.5,7.4 Z M1.5,3.4 L0.5,3.4 L0.5,0.4 L1.5,0.4 L1.5,3.4 Z" id="Shape"></path>
                    </g>
                    <g id="Oval_21_" transform="translate(40.000000, 62.000000)" fill="#F3492D">
                        <path d="M14,27.7 C6.6,27.7 0.5,21.6 0.5,14.2 C0.5,6.8 6.6,0.7 14,0.7 C21.4,0.7 27.5,6.8 27.5,14.2 C27.5,21.6 21.4,27.7 14,27.7 Z M14,7.7 C10.4,7.7 7.5,10.6 7.5,14.2 C7.5,17.8 10.4,20.7 14,20.7 C17.6,20.7 20.5,17.8 20.5,14.2 C20.5,10.6 17.6,7.7 14,7.7 Z" id="Shape"></path>
                    </g>
                </g>
            </g>
        </g>
    </g>
</svg>