<svg width="185px" height="186px" viewBox="0 0 185 186" version="1.1" xmlns="http://www.w3.org/2000/svg" xmlns:xlink="http://www.w3.org/1999/xlink">
    <!-- Generator: Sketch 48.2 (47327) - http://www.bohemiancoding.com/sketch -->
    <desc>Created with Sketch.</desc>
    <defs></defs>
    <g id="Page-1" stroke="none" stroke-width="1" fill="none" fill-rule="evenodd">
        <g id="WEB-1" transform="translate(-874.000000, -1525.000000)">
            <g id="页面「TECHNOLOGY」" transform="translate(166.000000, 1267.000000)">
                <g id="IDENTITY" transform="translate(646.000000, 262.000000)">
                    <g id="Group" transform="translate(62.000000, 0.000000)">
                        <path d="M177.5,115.9 C168.6,146.7 143.5,171.7 110,179 C61.3,189.6 13.3,158.7 2.7,110 C-7.9,61.3 23,13.3 71.7,2.7 C77.6,1.4 83.5,0.7 89.3,0.6" id="Shape_2002_" stroke="#FFFFFF" stroke-dasharray="2,2"></path>
                        <path d="M92.1,0.6 C133.1,1.1 169.9,29.8 179,71.7 C182,85.4 181.7,99 178.6,111.8" id="Shape_2001_" stroke="#FFFFFF" stroke-width="7.5"></path>
                        <path d="M155.3,131.8 C145.6,147.1 130.4,159 111.6,164.4 C71,175.9 28.8,152.3 17.4,111.7 C5.9,71.1 29.5,28.9 70.1,17.5 C76.5,15.7 82.9,14.8 89.3,14.6" id="Shape_2000_" stroke="#FFFFFF" stroke-dasharray="2,2"></path>
                        <path d="M92.1,14.5 C124.9,15 154.9,36.9 164.3,70.1 C170,90.4 167,111.1 157.5,128.1" id="Shape_1999_" stroke="#FFFFFF" stroke-width="7.5"></path>
                        <path d="M92.1,28 C117,28.5 140.2,43.8 149.6,68.5 C159.9,95.5 150.3,125.3 128,141.6" id="Shape_1998_" stroke="#FFFFFF" stroke-width="7.5"></path>
                        <path d="M124.5,144 C121,146.2 117.2,148.1 113.2,149.7 C93.8,157.1 72.9,154.2 56.7,143.7 C45.8,136.7 37,126.3 32.1,113.3 C30,107.8 28.7,102.2 28.2,96.6 C25.7,69.2 41.5,42.4 68.5,32.2 C75.3,29.6 82.3,28.3 89.3,28.1" id="Shape_1997_" stroke="#FFFFFF" stroke-dasharray="2,2"></path>
                        <path d="M86.6,140.8 C77.5,140 68.7,136.8 61.3,131.4 C55.5,127.2 50.5,121.6 46.8,114.8 C42,105.9 40.1,96.2 40.9,86.9 C42.2,70.6 51.5,55.2 67,46.8 C74.1,42.9 81.8,41 89.4,40.7" id="Shape_1996_" stroke="#FFFFFF" stroke-dasharray="2,2"></path>
                        <path d="M92.1,40.7 C109.4,41.2 126,50.6 134.9,66.9 C148.1,91.2 139.1,121.7 114.8,134.9 C107.2,139 99,141 90.8,141" id="Shape_1995_" stroke="#FFFFFF" stroke-width="7.5"></path>
                        <path d="M55.4,107 C51.7,98.9 51,89.8 53.1,81.3 C55,73.9 59.1,66.9 65.3,61.5 C72.3,55.4 80.8,52.3 89.3,52" id="Shape_1994_" stroke="#FFFFFF" stroke-dasharray="2,2"></path>
                        <path d="M92.1,51.9 C102.5,52.2 112.8,56.8 120.2,65.3 C134.3,81.5 132.6,106.1 116.4,120.2 C100.2,134.3 75.6,132.6 61.5,116.4 C59.9,114.6 58.5,112.7 57.3,110.6" id="Shape_1993_" stroke="#FFFFFF" stroke-width="7.5"></path>
                        <circle id="Oval_17_" stroke="#FF4229" stroke-width="7.5" cx="90.8" cy="90.9" r="27.2"></circle>
                    </g>
                </g>
            </g>
        </g>
    </g>
</svg>