<svg width="139px" height="158px" viewBox="0 0 139 158" version="1.1" xmlns="http://www.w3.org/2000/svg" xmlns:xlink="http://www.w3.org/1999/xlink">
    <!-- Generator: Sketch 48.2 (47327) - http://www.bohemiancoding.com/sketch -->
    <desc>Created with Sketch.</desc>
    <defs></defs>
    <g id="Page-1" stroke="none" stroke-width="1" fill="none" fill-rule="evenodd">
        <g id="WEB-1" transform="translate(-166.000000, -7195.000000)" fill-rule="nonzero">
            <g id="结束" transform="translate(-1.000000, 7110.000000)">
                <g id="LOGO" transform="translate(168.000000, 85.000000)">
                    <rect id="Rectangle-path_234_" stroke="#FFFFFF" stroke-width="0.999978" fill="#FFFFFF" transform="translate(51.585100, 68.921000) rotate(-59.999272) translate(-51.585100, -68.921000) " x="49.1851528" y="57.2212574" width="4.7998944" height="23.3994852"></rect>
                    <rect id="Rectangle-path_233_" stroke="#FFFFFF" stroke-width="0.999978" fill="#FFFFFF" transform="translate(85.401800, 88.395100) rotate(-59.999272) translate(-85.401800, -88.395100) " x="83.0018528" y="76.6953574" width="4.7998944" height="23.3994852"></rect>
                    <rect id="Rectangle-path_232_" stroke="#F3492D" stroke-width="0.999978" fill="#F3492D" transform="translate(108.961800, 70.889600) rotate(-59.999272) translate(-108.961800, -70.889600) " x="107.411834" y="63.0897716" width="3.0999318" height="15.5996568"></rect>
                    <rect id="Rectangle-path_231_" stroke="#F3492D" stroke-width="1.000028" fill="#F3492D" transform="translate(109.339755, 55.775970) rotate(-30.005690) translate(-109.339755, -55.775970) " x="101.539537" y="54.2259266" width="15.6004369" height="3.10008681"></rect>
                    <rect id="Rectangle-path_230_" stroke="#F3492D" fill="#F3492D" x="94.1" y="39.8" width="3.1" height="15.6"></rect>
                    <rect id="Rectangle-path_229_" stroke="#F3492D" fill="#F3492D" x="67.1" y="55.4" width="3.1" height="15.6"></rect>
                    <rect id="Rectangle-path_228_" stroke="#F3492D" stroke-width="1.000028" fill="#F3492D" transform="translate(82.430705, 40.239760) rotate(-30.005690) translate(-82.430705, -40.239760) " x="74.6304866" y="38.6897166" width="15.6004369" height="3.10008681"></rect>
                    <rect id="Rectangle-path_227_" stroke="#F3492D" fill="#F3492D" x="67.1" y="24.2" width="3.1" height="15.6"></rect>
                    <rect id="Rectangle-path_226_" stroke="#F3492D" stroke-width="0.999978" fill="#F3492D" transform="translate(54.960200, 39.660400) rotate(-59.999272) translate(-54.960200, -39.660400) " x="53.4102341" y="31.8605716" width="3.0999318" height="15.5996568"></rect>
                    <rect id="Rectangle-path_225_" stroke="#F3492D" stroke-width="0.999978" fill="#F3492D" transform="translate(81.967800, 55.275400) rotate(-59.999272) translate(-81.967800, -55.275400) " x="80.4178341" y="47.4755716" width="3.0999318" height="15.5996568"></rect>
                    <rect id="Rectangle-path_224_" stroke="#F3492D" stroke-width="1.000028" fill="#F3492D" transform="translate(55.342555, 55.771970) rotate(-30.005690) translate(-55.342555, -55.771970) " x="47.5423366" y="54.2219266" width="15.6004369" height="3.10008681"></rect>
                    <rect id="Rectangle-path_223_" stroke="#F3492D" fill="#F3492D" x="67.1" y="117.8" width="3.1" height="15.6"></rect>
                    <rect id="Rectangle-path_222_" stroke="#F3492D" fill="#F3492D" x="67.1" y="86.6" width="3.1" height="15.6"></rect>
                    <rect id="Rectangle-path_221_" stroke="#FFFFFF" fill="#FFFFFF" x="39.3" y="71" width="4.8" height="23.4"></rect>
                    <rect id="Rectangle-path_220_" stroke="#FFFFFF" fill="#FFFFFF" x="93.3" y="63.2" width="4.8" height="23.4"></rect>
                    <rect id="Rectangle-path_219_" stroke="#F3492D" stroke-width="0.999978" fill="#F3492D" transform="translate(81.967600, 117.693700) rotate(-59.999272) translate(-81.967600, -117.693700) " x="80.4176341" y="109.893872" width="3.0999318" height="15.5996568"></rect>
                    <rect id="Rectangle-path_218_" stroke="#F3492D" stroke-width="0.999978" fill="#F3492D" transform="translate(55.072500, 117.503900) rotate(-30.000728) translate(-55.072500, -117.503900) " x="47.2726716" y="115.953934" width="15.5996568" height="3.0999318"></rect>
                    <rect id="Rectangle-path_217_" stroke="#F3492D" fill="#F3492D" x="40.1" y="102.2" width="3.1" height="15.6"></rect>
                    <rect id="Rectangle-path_216_" stroke="#F3492D" stroke-width="0.999978" fill="#F3492D" transform="translate(27.970900, 86.464200) rotate(-59.999272) translate(-27.970900, -86.464200) " x="26.4209341" y="78.6643716" width="3.0999318" height="15.5996568"></rect>
                    <rect id="Rectangle-path_215_" stroke="#F3492D" stroke-width="0.999978" fill="#F3492D" transform="translate(54.967800, 102.079200) rotate(-59.999272) translate(-54.967800, -102.079200) " x="53.4178341" y="94.2793716" width="3.0999318" height="15.5996568"></rect>
                    <rect id="Rectangle-path_214_" stroke="#F3492D" stroke-width="0.999978" fill="#F3492D" transform="translate(28.089500, 101.951900) rotate(-30.000728) translate(-28.089500, -101.951900) " x="20.2896716" y="100.401934" width="15.5996568" height="3.0999318"></rect>
                    <rect id="Rectangle-path_213_" stroke="#F3492D" stroke-width="0.999978" fill="#F3492D" transform="translate(55.087000, 86.353600) rotate(-30.000728) translate(-55.087000, -86.353600) " x="47.2871716" y="84.8036341" width="15.5996568" height="3.0999318"></rect>
                    <rect id="Rectangle-path_212_" stroke="#F3492D" stroke-width="1.000028" fill="#F3492D" transform="translate(82.340615, 71.374970) rotate(-30.005690) translate(-82.340615, -71.374970) " x="74.5403966" y="69.8249266" width="15.6004369" height="3.10008681"></rect>
                    <rect id="Rectangle-path_211_" stroke="#F3492D" fill="#F3492D" x="94.1" y="102.2" width="3.1" height="15.6"></rect>
                    <rect id="Rectangle-path_210_" stroke="#F3492D" stroke-width="0.999978" fill="#F3492D" transform="translate(109.067800, 86.307200) rotate(-30.000728) translate(-109.067800, -86.307200) " x="101.267972" y="84.7572341" width="15.5996568" height="3.0999318"></rect>
                    <rect id="Rectangle-path_209_" stroke="#F3492D" stroke-width="0.999978" fill="#F3492D" transform="translate(108.961400, 102.098800) rotate(-59.999272) translate(-108.961400, -102.098800) " x="107.411434" y="94.2989716" width="3.0999318" height="15.5996568"></rect>
                    <rect id="Rectangle-path_208_" stroke="#F3492D" stroke-width="0.999978" fill="#F3492D" transform="translate(82.070300, 101.905500) rotate(-30.000728) translate(-82.070300, -101.905500) " x="74.2704716" y="100.355534" width="15.5996568" height="3.0999318"></rect>
                    <rect id="Rectangle-path_207_" stroke="#F3492D" fill="#F3492D" x="40.1" y="39.8" width="3.1" height="15.6"></rect>
                    <rect id="Rectangle-path_206_" stroke="#F3492D" stroke-width="0.999978" fill="#F3492D" transform="translate(27.971200, 55.255500) rotate(-59.999272) translate(-27.971200, -55.255500) " x="26.4212341" y="47.4556716" width="3.0999318" height="15.5996568"></rect>
                    <rect id="Rectangle-path_205_" stroke="#F3492D" stroke-width="1.000028" fill="#F3492D" transform="translate(28.343215, 71.370970) rotate(-30.005690) translate(-28.343215, -71.370970) " x="20.5429966" y="69.8209266" width="15.6004369" height="3.10008681"></rect>
                    <rect id="Rectangle-path_204_" stroke="#F3492D" stroke-width="0.999978" fill="#F3492D" transform="translate(132.631100, 84.540900) rotate(-59.999272) translate(-132.631100, -84.540900) " x="131.481125" y="80.6409858" width="2.2999494" height="7.7998284"></rect>
                    <rect id="Rectangle-path_203_" stroke="#F3492D" fill="#F3492D" x="67.5" y="0.8" width="2.3" height="7.8"></rect>
                    <rect id="Rectangle-path_202_" stroke="#F3492D" stroke-width="0.999978" fill="#F3492D" transform="translate(58.373000, 10.460000) rotate(-59.999272) translate(-58.373000, -10.460000) " x="57.2230253" y="6.5600858" width="2.2999494" height="7.7998284"></rect>
                    <rect id="Rectangle-path_201_" stroke="#F3492D" stroke-width="1.00001461" fill="#F3492D" transform="translate(78.899825, 10.754955) rotate(-29.992901) translate(-78.899825, -10.754955) " x="74.999768" y="9.6049382" width="7.80011396" height="2.3000336"></rect>
                    <rect id="Rectangle-path_200_" stroke="#F3492D" fill="#F3492D" x="40.5" y="16.4" width="2.3" height="7.8"></rect>
                    <rect id="Rectangle-path_199_" stroke="#F3492D" stroke-width="0.999978" fill="#F3492D" transform="translate(31.370800, 26.054200) rotate(-59.999272) translate(-31.370800, -26.054200) " x="30.2208253" y="22.1542858" width="2.2999494" height="7.7998284"></rect>
                    <polygon id="Shape_1699_" stroke="#F3492D" fill="#F3492D" points="61.3 19.3 54.6 23.2 47.8 27.1 49 29.1 55.7 25.2 62.5 21.3"></polygon>
                    <rect id="Rectangle-path_198_" stroke="#F3492D" fill="#F3492D" x="13.5" y="32" width="2.3" height="7.8"></rect>
                    <rect id="Rectangle-path_197_" stroke="#F3492D" stroke-width="0.999978" fill="#F3492D" transform="translate(4.385800, 41.681100) rotate(-59.999272) translate(-4.385800, -41.681100) " x="3.2358253" y="37.7811858" width="2.2999494" height="7.7998284"></rect>
                    <rect id="Rectangle-path_196_" stroke="#F3492D" stroke-width="1.00001461" fill="#F3492D" transform="translate(4.592205, 53.655915) rotate(-29.992901) translate(-4.592205, -53.655915) " x="0.692148021" y="52.5058982" width="7.80011396" height="2.3000336"></rect>
                    <polygon id="Shape_1696_" stroke="#F3492D" fill="#F3492D" points="35.5 36.9 34.3 34.9 20.8 42.7 22 44.7"></polygon>
                    <rect id="Rectangle-path_195_" stroke="#F3492D" fill="#F3492D" x="13.5" y="55.4" width="2.3" height="15.6"></rect>
                    <rect id="Rectangle-path_194_" stroke="#F3492D" stroke-width="0.999978" fill="#F3492D" transform="translate(4.288100, 72.849600) rotate(-59.999272) translate(-4.288100, -72.849600) " x="3.1381253" y="68.9496858" width="2.2999494" height="7.7998284"></rect>
                    <rect id="Rectangle-path_193_" stroke="#F3492D" stroke-width="1.00001461" fill="#F3492D" transform="translate(4.592885, 84.857735) rotate(-29.992901) translate(-4.592885, -84.857735) " x="0.692828021" y="83.7077182" width="7.80011396" height="2.3000336"></rect>
                    <rect id="Rectangle-path_192_" stroke="#F3492D" fill="#F3492D" x="13.5" y="86.6" width="2.3" height="15.6"></rect>
                    <rect id="Rectangle-path_191_" stroke="#F3492D" stroke-width="0.999978" fill="#F3492D" transform="translate(4.351300, 103.939100) rotate(-59.999272) translate(-4.351300, -103.939100) " x="3.2013253" y="100.039186" width="2.2999494" height="7.7998284"></rect>
                    <rect id="Rectangle-path_190_" stroke="#F3492D" stroke-width="1.00001461" fill="#F3492D" transform="translate(4.601465, 116.066855) rotate(-29.992901) translate(-4.601465, -116.066855) " x="0.701408021" y="114.916838" width="7.80011396" height="2.3000336"></rect>
                    <rect id="Rectangle-path_189_" stroke="#F3492D" fill="#F3492D" x="13.5" y="117.8" width="2.3" height="7.8"></rect>
                    <rect id="Rectangle-path_188_" stroke="#F3492D" stroke-width="0.999978" fill="#F3492D" transform="translate(27.971500, 117.695300) rotate(-59.999272) translate(-27.971500, -117.695300) " x="26.8215253" y="109.895472" width="2.2999494" height="15.5996568"></rect>
                    <rect id="Rectangle-path_187_" stroke="#F3492D" stroke-width="1.00001461" fill="#F3492D" transform="translate(31.598505, 131.668315) rotate(-29.992901) translate(-31.598505, -131.668315) " x="27.698448" y="130.518298" width="7.80011396" height="2.3000336"></rect>
                    <rect id="Rectangle-path_186_" stroke="#F3492D" fill="#F3492D" x="40.5" y="133.4" width="2.3" height="7.8"></rect>
                    <rect id="Rectangle-path_185_" stroke="#F3492D" stroke-width="0.999978" fill="#F3492D" transform="translate(54.969400, 133.259300) rotate(-59.999272) translate(-54.969400, -133.259300) " x="53.8194253" y="125.459472" width="2.2999494" height="15.5996568"></rect>
                    <rect id="Rectangle-path_184_" stroke="#F3492D" stroke-width="1.00001461" fill="#F3492D" transform="translate(58.596645, 147.273375) rotate(-29.992901) translate(-58.596645, -147.273375) " x="54.696588" y="146.123358" width="7.80011396" height="2.3000336"></rect>
                    <rect id="Rectangle-path_183_" stroke="#F3492D" fill="#F3492D" x="67.5" y="149" width="2.3" height="7.8"></rect>
                    <rect id="Rectangle-path_182_" stroke="#F3492D" stroke-width="0.999978" fill="#F3492D" transform="translate(78.540700, 146.862300) rotate(-59.999272) translate(-78.540700, -146.862300) " x="77.3907253" y="142.962386" width="2.2999494" height="7.7998284"></rect>
                    <rect id="Rectangle-path_181_" stroke="#F3492D" stroke-width="1.00001461" fill="#F3492D" transform="translate(82.306585, 133.552875) rotate(-29.992901) translate(-82.306585, -133.552875) " x="74.506471" y="132.402858" width="15.6002279" height="2.3000336"></rect>
                    <rect id="Rectangle-path_180_" stroke="#F3492D" fill="#F3492D" x="94.5" y="133.4" width="2.3" height="7.8"></rect>
                    <rect id="Rectangle-path_179_" stroke="#F3492D" stroke-width="0.999978" fill="#F3492D" transform="translate(105.551300, 131.413200) rotate(-59.999272) translate(-105.551300, -131.413200) " x="104.401325" y="127.513286" width="2.2999494" height="7.7998284"></rect>
                    <rect id="Rectangle-path_178_" stroke="#F3492D" stroke-width="1.00002289" fill="#F3492D" transform="translate(109.347725, 118.124445) rotate(-30.085285) translate(-109.347725, -118.124445) " x="101.547546" y="116.974419" width="15.6003571" height="2.30005265"></rect>
                    <rect id="Rectangle-path_177_" stroke="#F3492D" fill="#F3492D" x="121.5" y="117.8" width="2.3" height="7.8"></rect>
                    <rect id="Rectangle-path_176_" stroke="#F3492D" stroke-width="0.999978" fill="#F3492D" transform="translate(132.509700, 115.685800) rotate(-59.999272) translate(-132.509700, -115.685800) " x="131.359725" y="111.785886" width="2.2999494" height="7.7998284"></rect>
                    <rect id="Rectangle-path_175_" stroke="#F3492D" stroke-width="1.00001461" fill="#F3492D" transform="translate(132.912065, 104.358515) rotate(-29.992901) translate(-132.912065, -104.358515) " x="129.012008" y="103.208498" width="7.80011396" height="2.3000336"></rect>
                    <rect id="Rectangle-path_174_" stroke="#F3492D" fill="#F3492D" x="121.5" y="86.6" width="2.3" height="15.6"></rect>
                    <rect id="Rectangle-path_173_" stroke="#F3492D" stroke-width="1.00001461" fill="#F3492D" transform="translate(132.893985, 73.160595) rotate(-29.992901) translate(-132.893985, -73.160595) " x="128.993928" y="72.0105782" width="7.80011396" height="2.3000336"></rect>
                    <rect id="Rectangle-path_172_" stroke="#F3492D" fill="#F3492D" x="121.5" y="32" width="2.3" height="7.8"></rect>
                    <rect id="Rectangle-path_171_" stroke="#F3492D" fill="#F3492D" x="121.5" y="55.4" width="2.3" height="15.6"></rect>
                    <rect id="Rectangle-path_170_" stroke="#F3492D" stroke-width="0.999978" fill="#F3492D" transform="translate(132.536500, 53.429900) rotate(-59.999272) translate(-132.536500, -53.429900) " x="131.386525" y="49.5299858" width="2.2999494" height="7.7998284"></rect>
                    <rect id="Rectangle-path_169_" stroke="#F3492D" stroke-width="1.00001461" fill="#F3492D" transform="translate(132.895505, 41.957875) rotate(-29.992901) translate(-132.895505, -41.957875) " x="128.995448" y="40.8078582" width="7.80011396" height="2.3000336"></rect>
                    <rect id="Rectangle-path_168_" stroke="#F3492D" fill="#F3492D" x="94.5" y="16.4" width="2.3" height="7.8"></rect>
                    <rect id="Rectangle-path_167_" stroke="#F3492D" stroke-width="0.999978" fill="#F3492D" transform="translate(81.921300, 24.069800) rotate(-59.999272) translate(-81.921300, -24.069800) " x="80.7713253" y="16.2699716" width="2.2999494" height="15.5996568"></rect>
                    <rect id="Rectangle-path_166_" stroke="#F3492D" stroke-width="0.999968369" fill="#F3492D" transform="translate(108.843635, 39.616385) rotate(-59.965867) translate(-108.843635, -39.616385) " x="107.693671" y="31.8166317" width="2.29992725" height="15.5995066"></rect>
                    <rect id="Rectangle-path_165_" stroke="#F3492D" stroke-width="1.00001461" fill="#F3492D" transform="translate(105.897465, 26.357615) rotate(-29.992901) translate(-105.897465, -26.357615) " x="101.997408" y="25.2075982" width="7.80011396" height="2.3000336"></rect>
                </g>
            </g>
        </g>
    </g>
</svg>