<svg width="182px" height="207px" viewBox="0 0 182 207" version="1.1" xmlns="http://www.w3.org/2000/svg" xmlns:xlink="http://www.w3.org/1999/xlink">
    <!-- Generator: Sketch 48.2 (47327) - http://www.bohemiancoding.com/sketch -->
    <desc>Created with Sketch.</desc>
    <defs></defs>
    <g id="Page-1" stroke="none" stroke-width="1" fill="none" fill-rule="evenodd">
        <g id="Artboard" transform="translate(-1409.000000, -1281.000000)" fill-rule="nonzero">
            <g id="01-TECHNOLOGY" transform="translate(190.000000, 1281.000000)">
                <g id="icon「可扩展」" transform="translate(1219.000000, 0.000000)">
                    <path d="M152.83938,84.27102 L156.35058,78.21532 L181.69801,92.9122 L178.18681,98.9679 L152.83938,84.27102 Z M152.73869,63.52538 L178.08319,48.82557 L181.59509,54.88057 L156.25059,69.58038 L152.73869,63.52538 Z M137.2,29.8 L144.2,29.8 L144.2,59.2 L137.2,59.2 L137.2,29.8 Z M102.03416,34.14745 L127.38159,19.45057 L130.89279,25.50627 L105.54536,40.20315 L102.03416,34.14745 Z M86.6,0.4 L93.6,0.4 L93.6,29.8 L86.6,29.8 L86.6,0.4 Z M51.31759,25.43263 L54.82879,19.37693 L80.17622,34.07381 L76.66502,40.12951 L51.31759,25.43263 Z M102.08746,54.89336 L105.59866,48.83766 L130.94609,63.53454 L127.43489,69.59024 L102.08746,54.89336 Z M51.23979,63.51573 L76.58429,48.81592 L80.09619,54.87092 L54.75169,69.57073 L51.23979,63.51573 Z M86.6,177 L93.6,177 L93.6,206.4 L86.6,206.4 L86.6,177 Z M102.06833,172.60298 L105.57953,166.54728 L130.92696,181.24416 L127.41576,187.29986 L102.06833,172.60298 Z M51.27595,181.30173 L76.62045,166.60192 L80.13235,172.65692 L54.78785,187.35673 L51.27595,181.30173 Z M36.1,147.5 L43.1,147.5 L43.1,176.9 L36.1,176.9 L36.1,147.5 Z M0.49065,113.65391 L3.99695,107.59541 L29.44265,122.32187 L25.93635,128.38037 L0.49065,113.65391 Z M51.36657,143.13881 L54.87777,137.08311 L80.2252,151.77999 L76.714,157.83569 L51.36657,143.13881 Z M0.39255,151.84596 L25.83825,137.12244 L29.34385,143.18094 L3.89815,157.90446 L0.39255,151.84596 Z M86.6,59.2 L93.6,59.2 L93.6,88.6 L86.6,88.6 L86.6,59.2 Z M51.33017,122.4175 L76.6776,107.72062 L80.1888,113.77632 L54.84137,128.4732 L51.33017,122.4175 Z M101.98024,93.03534 L127.32474,78.33553 L130.83664,84.39053 L105.49214,99.09034 L101.98024,93.03534 Z M137.2,147.5 L144.2,147.5 L144.2,176.9 L137.2,176.9 L137.2,147.5 Z M152.83212,122.425 L178.17955,107.72812 L181.69075,113.78382 L156.34332,128.4807 L152.83212,122.425 Z M152.87257,143.15116 L156.38377,137.09546 L181.7312,151.79234 L178.22,157.84804 L152.87257,143.15116 Z M36.1,29.8 L43.1,29.8 L43.1,59.2 L36.1,59.2 L36.1,29.8 Z M0.58245,54.85415 L4.08945,48.79565 L29.53515,63.52505 L26.02815,69.58355 L0.58245,54.85415 Z M0.42661,93.03966 L25.87231,78.31614 L29.37791,84.37464 L3.93221,99.09816 L0.42661,93.03966 Z M86.6,118.1 L93.6,118.1 L93.6,147.5 L86.6,147.5 L86.6,118.1 Z M101.9479,151.84194 L127.2924,137.14213 L130.8043,143.19713 L105.4598,157.89694 L101.9479,151.84194 Z" id="Combined-Shape" fill="#FFFFFF"></path>
                    <rect id="Rectangle-path" fill="#F3492D" x="137.2" y="88.7" width="7" height="29.4"></rect>
                    <rect id="Rectangle-path" fill="#F3492D" x="36.1" y="88.7" width="7" height="29.4"></rect>
                    <rect id="Rectangle-path" fill="#33C69B" transform="translate(116.481755, 118.100730) rotate(-59.894098) translate(-116.481755, -118.100730) " x="112.981754" y="103.450726" width="7.00000199" height="29.3000084"></rect>
                    <rect id="Rectangle-path" fill="#33C69B" transform="translate(65.762695, 88.579160) rotate(-59.894098) translate(-65.762695, -88.579160) " x="62.262694" y="73.9291558" width="7.00000199" height="29.3000084"></rect>
                </g>
            </g>
        </g>
    </g>
</svg>