<?xml version="1.0" standalone="no"?><!DOCTYPE svg PUBLIC "-//W3C//DTD SVG 1.1//EN" "http://www.w3.org/Graphics/SVG/1.1/DTD/svg11.dtd"><svg t="1518165984218" class="icon" style="" viewBox="0 0 1025 1024" version="1.1" xmlns="http://www.w3.org/2000/svg" p-id="1039" xmlns:xlink="http://www.w3.org/1999/xlink" width="200.1953125" height="200"><defs><style type="text/css"></style></defs><path d="M1023.984012 112.783322c0.006-0.122001 0.01-0.242003 0.014-0.364004 0.004-0.140002-0.004-0.278003-0.004-0.418005 0-0.260003 0.004-0.520006-0.008-0.778009-0.01-0.220003-0.034-0.438005-0.054001-0.656008-0.002-0.028-0.004-0.058001-0.008-0.086001-0.012-0.126001-0.016-0.254003-0.032-0.380004-0.016-0.142002-0.036-0.282003-0.056001-0.422005-0.03-0.206002-0.074001-0.410005-0.112001-0.616007-0.052001-0.286003-0.102001-0.572007-0.172002-0.85601-0.008-0.03-0.014-0.060001-0.022-0.090001-0.050001-0.200002-0.116001-0.396005-0.174002-0.596007-0.080001-0.278003-0.158002-0.554006-0.254003-0.82801-0.046001-0.132002-0.098001-0.260003-0.146002-0.390005-0.046001-0.120001-0.098001-0.234003-0.146002-0.354004 0-0.002-0.002-0.006-0.004-0.008-0.092001-0.226003-0.178002-0.452005-0.280003-0.674008-0.114001-0.248003-0.246003-0.486006-0.372004-0.728009-0.062001-0.120001-0.122001-0.240003-0.188002-0.358004-0.056001-0.100001-0.106001-0.200002-0.164002-0.298003-0.198002-0.334004-0.418005-0.660008-0.640008-0.982012-0.072001-0.104001-0.132002-0.214003-0.206002-0.318004-0.004-0.006-0.008-0.01-0.012-0.016-0.01-0.014-0.022-0.028-0.032-0.042-0.198002-0.270003-0.420005-0.528006-0.638007-0.788009-0.136002-0.162002-0.264003-0.334004-0.404005-0.488006-0.062001-0.068001-0.130002-0.134002-0.194002-0.204002-0.100001-0.108001-0.210002-0.208002-0.314004-0.312004-0.220003-0.222003-0.436005-0.448005-0.666008-0.656008-0.014-0.014-0.028-0.028-0.042-0.042-0.094001-0.084001-0.194002-0.152002-0.290003-0.232003-0.044001-0.038-0.090001-0.074001-0.136002-0.112001-0.068001-0.058001-0.126001-0.124001-0.196002-0.180002-0.046001-0.036-0.096001-0.062001-0.142002-0.100001-0.150002-0.118001-0.296003-0.238003-0.448005-0.350004-0.148002-0.108001-0.304004-0.202002-0.454005-0.306004-0.280003-0.190002-0.560007-0.382004-0.85001-0.552006-0.212002-0.126001-0.432005-0.234003-0.648008-0.348004-0.236003-0.126001-0.470006-0.254003-0.712008-0.368004-0.100001-0.046001-0.200002-0.094001-0.302004-0.138002-0.064001-0.028-0.128002-0.048001-0.192002-0.076001-0.104001-0.044001-0.208002-0.082001-0.312004-0.124001-0.204002-0.082001-0.406005-0.168002-0.612007-0.242003-0.222003-0.080001-0.446005-0.144002-0.670008-0.212002-0.130002-0.04-0.258003-0.080001-0.390005-0.116001-0.138002-0.038-0.276003-0.080001-0.416005-0.116001-0.296003-0.074001-0.594007-0.128002-0.89401-0.186002-0.168002-0.032-0.334004-0.076001-0.504006-0.102001-0.044001-0.006-0.090001-0.008-0.134002-0.016-0.276003-0.04-0.554006-0.064001-0.83001-0.090001-0.238003-0.022-0.474006-0.048001-0.712008-0.062001-0.108001-0.006-0.214003-0.012-0.322004-0.014-0.126001-0.004-0.252003 0.004-0.378004 0.004-0.018 0-0.036 0-0.054001 0-0.268003 0-0.536006-0.004-0.804009 0.008-0.214003 0.01-0.428005 0.034-0.642008 0.052001-0.142002 0.012-0.284003 0.02-0.426005 0.036-0.160002 0.018-0.318004 0.036-0.476006 0.060001-0.212002 0.03-0.422005 0.076001-0.634007 0.114001-0.264003 0.050001-0.530006 0.092001-0.792009 0.154002-0.03 0.008-0.060001 0.018-0.092001 0.026-0.222003 0.054001-0.442005 0.124001-0.662008 0.188002-0.270003 0.078001-0.540006 0.154002-0.806009 0.248003-0.130002 0.044001-0.256003 0.096001-0.384005 0.144002-0.034 0.012-0.068001 0.02-0.102001 0.032l-992.011625 384.0045c-6.168072 2.388028-10.23212 8.324098-10.22412 14.938175 0.006 6.614078 4.084048 12.542147 10.25612 14.916175l295.757466 113.753333 94.771111 292.253425c0.014 0.042 0.036 0.078001 0.050001 0.118001 0.028 0.086001 0.048001 0.174002 0.078001 0.260003 0.224003 0.638007 0.502006 1.258015 0.808009 1.868022 0.064001 0.126001 0.130002 0.248003 0.196002 0.372004 0.298003 0.558007 0.626007 1.102013 0.994012 1.626019 0.048001 0.070001 0.090001 0.144002 0.140002 0.212002 0.024 0.034 0.048001 0.068001 0.074001 0.102001 0.028 0.036 0.058001 0.068001 0.086001 0.106001 0.120001 0.160002 0.254003 0.314004 0.382004 0.470006 0.152002 0.188002 0.296003 0.380004 0.456005 0.562007 0.124001 0.138002 0.260003 0.266003 0.390005 0.400005 0.060001 0.062001 0.120001 0.124001 0.180002 0.186002 0.092001 0.092001 0.178002 0.190002 0.272003 0.280003 0.098001 0.094001 0.192002 0.190002 0.292003 0.282003 0.096001 0.088001 0.200002 0.168002 0.300004 0.252003 0.308004 0.270003 0.620007 0.532006 0.948011 0.780009 0.02 0.016 0.038 0.032 0.058001 0.048001 0.03 0.022 0.066001 0.038 0.096001 0.060001 0.100001 0.072001 0.202002 0.138002 0.302004 0.208002 0.514006 0.358004 1.054012 0.688008 1.616019 0.986012 0.092001 0.048001 0.178002 0.110001 0.270003 0.156002 0.03 0.016 0.060001 0.026 0.090001 0.042 0.528006 0.262003 1.070013 0.504006 1.638019 0.712008 0.120001 0.044001 0.242003 0.074001 0.362004 0.114001 0.158002 0.054001 0.316004 0.102001 0.476006 0.150002 0.688008 0.210002 1.380016 0.380004 2.074024 0.496006 0.032 0.006 0.062001 0.016 0.094001 0.022 0.066001 0.01 0.132002 0.008 0.198002 0.018 0.766009 0.112001 1.534018 0.180002 2.294027 0.180002 0 0 0.002 0 0.002 0l0 0c0 0 0 0 0.002 0 0.062001 0 0.122001-0.014 0.184002-0.014 0.658008-0.008 1.314015-0.062001 1.966023-0.150002 0.098001-0.014 0.198002-0.012 0.294003-0.026 0.140002-0.022 0.280003-0.072001 0.420005-0.098001 0.506006-0.092001 1.006012-0.208002 1.502018-0.350004 0.162002-0.046001 0.326004-0.076001 0.486006-0.126001 0.028-0.008 0.056001-0.012 0.084001-0.02 0.076001-0.024 0.148002-0.060001 0.224003-0.086001 0.238003-0.080001 0.470006-0.176002 0.704008-0.268003 0.312004-0.124001 0.622007-0.250003 0.922011-0.390005 0.046001-0.02 0.092001-0.036 0.138002-0.058001 0.026-0.014 0.056001-0.022 0.082001-0.034 0.150002-0.072001 0.292003-0.160002 0.440005-0.238003 0.310004-0.162002 0.612007-0.334004 0.908011-0.514006 0.196002-0.120001 0.390005-0.240003 0.580007-0.368004 0.002-0.002 0.004-0.002 0.006-0.004 0.056001-0.038 0.114001-0.070001 0.170002-0.108001 0.266003-0.184002 0.518006-0.386005 0.772009-0.584007 0.148002-0.116001 0.298003-0.224003 0.442005-0.346004 0.158002-0.134002 0.310004-0.276003 0.462005-0.416005 0.118001-0.106001 0.230003-0.218003 0.346004-0.330004 0.492006-0.478006 0.960011-0.978011 1.386016-1.512018 0.036-0.044001 0.074001-0.086001 0.110001-0.132002 0.046001-0.060001 0.086001-0.126001 0.130002-0.186002 0.034-0.044001 0.074001-0.082001 0.108001-0.128002l116.91537-157.991851c5.256062-7.104083 3.760044-17.122201-3.344039-22.378262-7.102083-5.256062-17.124201-3.758044-22.378262 3.344039l-50.796595 68.644804 40.372473-110.213292 382.148478 145.0437c1.836022 0.696008 3.760044 1.042012 5.676067 1.042012 2.798033 0 5.584065-0.734009 8.062094-2.178026 4.172049-2.434029 7.022082-6.622078 7.754091-11.396134l110.551296-721.012449c0.006-0.034 0.004-0.068001 0.008-0.102001 0.038-0.266003 0.060001-0.532006 0.086001-0.798009C1023.946011 113.269327 1023.972011 113.027325 1023.984012 112.783322zM899.124548 171.294007 442.109193 503.211897c-7.150084 5.192061-8.736102 15.198178-3.544042 22.348262 3.130037 4.310051 8.010094 6.598077 12.958152 6.598077 3.260038 0 6.550077-0.994012 9.39011-3.056036l436.573116-317.071716L488.895741 670.823861c-1.586019 1.564018-2.880034 3.476041-3.722044 5.696067-0.144002 0.376004-0.254003 0.758009-0.368004 1.138013l-67.880795 185.308172-82.826971-255.416993c-1.546018-4.768056-5.12006-8.308097-9.456111-9.986117-0.024-0.01-0.046001-0.022-0.072001-0.032L60.44672 495.943812 899.124548 171.294007zM884.642379 811.021504l-357.060184-135.521588L984.001543 163.00391 884.642379 811.021504z" p-id="1040" fill="#ffffff"></path><path d="M371.01636 590.628921c3.260038 0 6.550077-0.994012 9.39011-3.056036l31.100364-22.588265c7.150084-5.192061 8.736102-15.198178 3.544042-22.348262-5.194061-7.150084-15.200178-8.736102-22.348262-3.544042l-31.100364 22.588265c-7.150084 5.192061-8.736102 15.198178-3.544042 22.348262C361.188244 588.340895 366.068302 590.628921 371.01636 590.628921z" p-id="1041" fill="#ffffff"></path></svg>