<svg width="185px" height="185px" viewBox="0 0 185 185" version="1.1" xmlns="http://www.w3.org/2000/svg" xmlns:xlink="http://www.w3.org/1999/xlink">
    <!-- Generator: Sketch 48.2 (47327) - http://www.bohemiancoding.com/sketch -->
    <desc>Created with Sketch.</desc>
    <defs></defs>
    <g id="Page-1" stroke="none" stroke-width="1" fill="none" fill-rule="evenodd">
        <g id="Artboard" transform="translate(-950.000000, -1303.000000)" fill-rule="nonzero">
            <g id="01-TECHNOLOGY" transform="translate(190.000000, 1281.000000)">
                <g id="icon「身份认证」" transform="translate(760.000000, 22.000000)">
                    <g id="Shape_204_" transform="translate(0.000000, 2.000000)" fill="#FFFFFF">
                        <path d="M91.4,182.3 L89.9,182.3 L89.9,181.3 L91.4,181.3 L91.9,181.3 L91.9,182.3 L91.4,182.3 Z M93.9,182.3 L93.9,181.3 C94.6,181.3 95.2,181.3 95.9,181.2 L95.9,182.2 C95.2,182.2 94.5,182.2 93.9,182.3 Z M87.8,182.2 C87.1,182.2 86.5,182.1 85.8,182.1 L85.9,181.1 C86.6,181.1 87.2,181.2 87.9,181.2 L87.8,182.2 Z M97.9,182.1 L97.8,181.1 C98.5,181.1 99.1,181 99.8,180.9 L99.9,181.9 C99.2,182 98.6,182 97.9,182.1 Z M83.8,182 C83.1,181.9 82.5,181.9 81.8,181.8 L81.9,180.8 C82.6,180.9 83.2,180.9 83.9,181 L83.8,182 Z M101.9,181.7 L101.8,180.7 C102.5,180.6 103.1,180.5 103.8,180.4 L103.9,181.4 C103.2,181.5 102.6,181.6 101.9,181.7 Z M79.8,181.6 C79.1,181.5 78.5,181.4 77.8,181.3 L78,180.3 C78.7,180.4 79.3,180.5 80,180.6 L79.8,181.6 Z M105.9,181.1 L105.7,180.1 C106.4,180 107,179.9 107.7,179.8 L107.9,180.8 C107.2,180.9 106.5,181 105.9,181.1 Z M75.8,180.9 C75.1,180.8 74.5,180.7 73.8,180.5 L74,179.5 C74.7,179.6 75.3,179.7 76,179.9 L75.8,180.9 Z M109.8,180.4 L109.6,179.4 L110.5,179.2 C110.9,179.1 111.2,179 111.6,179 L111.8,180 C111.4,180.1 111.1,180.2 110.7,180.2 L109.8,180.4 Z M71.9,180.2 C71.2,180.1 70.6,179.9 69.9,179.7 L70.1,178.7 C70.7,178.9 71.4,179 72,179.2 L71.9,180.2 Z M113.8,179.5 L113.6,178.5 C114.2,178.3 114.9,178.2 115.5,178 L115.8,179 C115.1,179.2 114.4,179.3 113.8,179.5 Z M68,179.2 C67.4,179 66.7,178.8 66.1,178.7 L66.4,177.7 C67,177.9 67.7,178.1 68.3,178.2 L68,179.2 Z M117.6,178.4 L117.3,177.4 C117.9,177.2 118.6,177 119.2,176.8 L119.5,177.8 C118.9,178 118.3,178.2 117.6,178.4 Z M64.1,178.1 C63.5,177.9 62.8,177.7 62.2,177.5 L62.5,176.6 C63.1,176.8 63.8,177 64.4,177.2 L64.1,178.1 Z M121.5,177.2 L121.2,176.3 C121.8,176.1 122.4,175.9 123.1,175.6 L123.5,176.5 C122.7,176.7 122.1,177 121.5,177.2 Z M60.3,176.8 C59.7,176.6 59,176.3 58.4,176.1 L58.8,175.2 C59.4,175.4 60,175.7 60.7,175.9 L60.3,176.8 Z M125.2,175.8 L124.8,174.9 C125.4,174.7 126,174.4 126.6,174.1 L127,175 C126.5,175.3 125.8,175.5 125.2,175.8 Z M56.5,175.3 C55.9,175 55.3,174.8 54.7,174.5 L55.1,173.6 C55.7,173.9 56.3,174.1 56.9,174.4 L56.5,175.3 Z M128.9,174.2 L128.5,173.3 C129.1,173 129.7,172.7 130.3,172.5 L130.7,173.4 C130.1,173.6 129.5,173.9 128.9,174.2 Z M52.8,173.7 C52.2,173.4 51.6,173.1 51,172.8 L51.4,171.9 C52,172.2 52.6,172.5 53.2,172.8 L52.8,173.7 Z M132.5,172.5 L132,171.6 C132.6,171.3 133.2,171 133.8,170.7 L134.3,171.6 C133.7,171.8 133.1,172.2 132.5,172.5 Z M49.2,171.9 C48.6,171.6 48,171.3 47.4,170.9 L47.9,170 C48.5,170.3 49.1,170.6 49.7,170.9 L49.2,171.9 Z M136.1,170.6 L135.6,169.7 C136.2,169.4 136.7,169 137.3,168.7 L137.8,169.6 C137.2,169.9 136.7,170.2 136.1,170.6 Z M45.7,169.9 C45.1,169.6 44.5,169.2 44,168.9 L44.5,168 C45.1,168.3 45.6,168.7 46.2,169 L45.7,169.9 Z M139.5,168.5 L139,167.7 C139.6,167.3 140.1,167 140.7,166.6 L141.2,167.4 C140.7,167.8 140.1,168.2 139.5,168.5 Z M42.3,167.8 C41.7,167.4 41.2,167.1 40.6,166.7 L41.2,165.9 C41.7,166.3 42.3,166.6 42.9,167 L42.3,167.8 Z M142.9,166.3 L142.3,165.5 C142.8,165.1 143.4,164.7 143.9,164.4 L144.5,165.2 C144,165.5 143.4,165.9 142.9,166.3 Z M39,165.6 C38.5,165.2 37.9,164.8 37.4,164.4 L38,163.6 C38.5,164 39.1,164.4 39.6,164.8 L39,165.6 Z M146.1,164 L145.5,163.2 C146,162.8 146.6,162.4 147.1,162 L147.7,162.8 C147.2,163.2 146.7,163.6 146.1,164 Z M35.7,163.2 C35.2,162.8 34.6,162.4 34.1,161.9 L34.7,161.1 C35.2,161.5 35.7,161.9 36.3,162.3 L35.7,163.2 Z M149.3,161.5 L148.7,160.7 C149.2,160.3 149.7,159.8 150.2,159.4 L150.9,160.2 C150.3,160.6 149.8,161 149.3,161.5 Z M32.6,160.6 C32.1,160.2 31.6,159.7 31.1,159.3 L31.8,158.6 C32.3,159 32.8,159.5 33.3,159.9 L32.6,160.6 Z M152.3,158.8 L151.6,158.1 C152.1,157.7 152.6,157.2 153.1,156.8 L153.8,157.5 C153.3,157.9 152.8,158.4 152.3,158.8 Z M29.6,158 C29.1,157.5 28.6,157.1 28.1,156.6 L28.8,155.9 C29.3,156.4 29.8,156.8 30.2,157.3 L29.6,158 Z M155.2,156.1 L154.5,155.4 C155,154.9 155.4,154.5 155.9,154 L156.6,154.7 L155.2,156.1 Z M26.7,155.2 C26.2,154.7 25.8,154.2 25.3,153.8 L26,153.1 C26.5,153.6 26.9,154.1 27.4,154.5 L26.7,155.2 Z M158,153.2 L157.3,152.5 C157.7,152 158.2,151.5 158.6,151 L159.3,151.7 C158.9,152.2 158.5,152.7 158,153.2 Z M24,152.2 C23.6,151.7 23.1,151.2 22.7,150.7 L23.5,150 C23.9,150.5 24.4,151 24.8,151.5 L24,152.2 Z M160.7,150.2 L159.9,149.6 C160.3,149.1 160.7,148.6 161.2,148.1 L162,148.7 C161.5,149.1 161.1,149.7 160.7,150.2 Z M21.4,149.2 C21,148.7 20.6,148.2 20.1,147.6 L20.9,147 C21.3,147.5 21.7,148 22.1,148.5 L21.4,149.2 Z M163.2,147.1 L162.4,146.5 C162.8,146 163.2,145.4 163.6,144.9 L164.4,145.5 C164,146 163.6,146.5 163.2,147.1 Z M18.9,146.1 C18.5,145.6 18.1,145 17.7,144.5 L18.5,143.9 C18.9,144.4 19.3,145 19.7,145.5 L18.9,146.1 Z M165.6,143.8 L164.8,143.2 C165.2,142.7 165.6,142.1 165.9,141.6 L166.7,142.2 C166.4,142.7 166,143.3 165.6,143.8 Z M16.6,142.8 C16.2,142.2 15.9,141.7 15.5,141.1 L16.3,140.6 C16.7,141.2 17,141.7 17.4,142.2 L16.6,142.8 Z M167.8,140.5 L167,140 C167.4,139.4 167.7,138.9 168.1,138.3 L169,138.8 C168.6,139.3 168.2,139.9 167.8,140.5 Z M14.4,139.4 C14,138.8 13.7,138.3 13.4,137.7 L14.3,137.2 C14.6,137.8 15,138.3 15.3,138.9 L14.4,139.4 Z M169.9,137 L169,136.5 C169.3,135.9 169.7,135.3 170,134.8 L170.9,135.3 C170.6,135.9 170.3,136.5 169.9,137 Z M12.3,136 C12,135.4 11.7,134.8 11.3,134.2 L12.2,133.7 C12.5,134.3 12.8,134.9 13.2,135.4 L12.3,136 Z M171.9,133.5 L171,133 C171.3,132.4 171.6,131.8 171.9,131.2 L172.8,131.6 C172.5,132.3 172.2,132.9 171.9,133.5 Z M10.4,132.4 L9.5,130.6 L10.4,130.2 C10.7,130.8 11,131.4 11.3,132 L10.4,132.4 Z M173.7,129.9 L172.8,129.5 C173.1,128.9 173.4,128.3 173.6,127.7 L174.5,128.1 C174.2,128.7 173.9,129.3 173.7,129.9 Z M8.7,128.8 C8.4,128.2 8.2,127.6 7.9,127 L8.8,126.6 C9.1,127.2 9.3,127.8 9.6,128.4 L8.7,128.8 Z M175.3,126.2 L174.4,125.8 C174.7,125.2 174.9,124.6 175.1,124 L176,124.4 C175.8,125 175.5,125.6 175.3,126.2 Z M7.1,125.1 C6.9,124.5 6.6,123.9 6.4,123.2 L7.3,122.9 C7.5,123.5 7.8,124.1 8,124.8 L7.1,125.1 Z M176.7,122.5 L175.8,122.2 C176,121.6 176.2,121 176.5,120.3 L177.4,120.6 C177.2,121.2 177,121.9 176.7,122.5 Z M5.7,121.3 C5.5,120.7 5.3,120 5.1,119.4 L6.1,119.1 C6.3,119.7 6.5,120.4 6.7,121 L5.7,121.3 Z M178,118.7 L177,118.4 C177.2,117.8 177.4,117.1 177.6,116.5 L178.6,116.8 C178.4,117.4 178.2,118 178,118.7 Z M4.5,117.5 C4.3,116.9 4.1,116.2 3.9,115.6 L4.9,115.3 C5.1,115.9 5.3,116.6 5.4,117.2 L4.5,117.5 Z M3.4,113.6 C3.2,113 3.1,112.3 2.9,111.6 L3.9,111.4 C4,112 4.2,112.7 4.4,113.3 L3.4,113.6 Z M2.6,109.7 C2.5,109 2.3,108.4 2.2,107.7 L3.2,107.5 C3.3,108.2 3.4,108.8 3.6,109.5 L2.6,109.7 Z M1.8,105.7 C1.7,105 1.6,104.4 1.5,103.7 L2.5,103.6 C2.6,104.3 2.7,104.9 2.8,105.6 L1.8,105.7 Z M1.3,101.8 C1.2,101.1 1.2,100.5 1.1,99.8 L2.1,99.7 C2.2,100.4 2.2,101 2.3,101.7 L1.3,101.8 Z M0.9,97.8 C0.9,97.1 0.8,96.5 0.8,95.8 L1.8,95.8 C1.8,96.5 1.9,97.1 1.9,97.8 L0.9,97.8 Z M0.7,93.7 L0.7,91.7 L1.7,91.7 L1.7,93.7 L0.7,93.7 Z M1.7,89.7 L0.7,89.7 C0.7,89 0.7,88.4 0.8,87.7 L1.8,87.7 C1.8,88.4 1.7,89.1 1.7,89.7 Z M1.9,85.8 L0.9,85.7 C0.9,85 1,84.4 1.1,83.7 L2.1,83.8 C2,84.4 1.9,85.1 1.9,85.8 Z M2.2,81.8 L1.2,81.7 C1.3,81 1.4,80.4 1.4,79.7 L2.4,79.8 C2.4,80.5 2.3,81.1 2.2,81.8 Z M2.8,77.8 L1.8,77.6 C1.9,76.9 2,76.3 2.1,75.6 L3.1,75.8 C3,76.5 2.9,77.2 2.8,77.8 Z M3.5,73.9 L2.5,73.7 C2.6,73 2.8,72.4 2.9,71.7 L3.9,71.9 C3.7,72.6 3.6,73.2 3.5,73.9 Z M4.3,70 L3.3,69.8 C3.5,69.1 3.6,68.5 3.8,67.8 L4.8,68.1 C4.7,68.7 4.5,69.4 4.3,70 Z M5.4,66.2 L4.4,65.9 C4.6,65.3 4.8,64.6 5,64 L6,64.3 C5.8,64.9 5.6,65.5 5.4,66.2 Z M6.6,62.4 L5.7,62.1 C5.9,61.5 6.1,60.8 6.4,60.2 L7.3,60.5 C7,61.1 6.8,61.7 6.6,62.4 Z M8,58.6 L7.1,58.2 C7.3,57.6 7.6,57 7.9,56.3 L8.8,56.7 C8.5,57.4 8.2,58 8,58.6 Z M9.5,55 L8.6,54.6 C8.9,54 9.2,53.4 9.4,52.8 L10.3,53.2 C10.1,53.8 9.8,54.4 9.5,55 Z M11.2,51.4 L10.3,51 L11.2,49.2 L12.1,49.7 C11.8,50.2 11.5,50.8 11.2,51.4 Z M13.1,47.9 L12.2,47.4 C12.5,46.8 12.9,46.2 13.2,45.7 L14.1,46.2 C13.7,46.7 13.4,47.3 13.1,47.9 Z M15.1,44.4 L14.2,43.9 C14.6,43.3 14.9,42.8 15.3,42.2 L16.1,42.7 C15.8,43.3 15.5,43.9 15.1,44.4 Z M17.3,41.1 L16.5,40.5 C16.9,39.9 17.3,39.4 17.6,38.9 L18.4,39.5 C18,40 17.6,40.5 17.3,41.1 Z M19.6,37.9 L18.8,37.3 C19.2,36.8 19.6,36.2 20,35.7 L20.8,36.3 C20.4,36.8 20,37.3 19.6,37.9 Z M22,34.7 L21.2,34.1 C21.6,33.6 22.1,33.1 22.5,32.6 L23.3,33.3 C22.9,33.7 22.5,34.2 22,34.7 Z M24.6,31.7 L23.9,31 C24.3,30.5 24.8,30 25.3,29.5 L26,30.2 C25.5,30.7 25.1,31.2 24.6,31.7 Z M27.3,28.8 L26.6,28.1 C27.1,27.6 27.5,27.1 28,26.7 L28.7,27.4 C28.3,27.9 27.8,28.3 27.3,28.8 Z M30.2,26 L29.5,25.3 C30,24.8 30.5,24.4 31,23.9 L31.7,24.6 C31.1,25.1 30.6,25.6 30.2,26 Z M33.1,23.4 L32.4,22.6 C32.9,22.2 33.4,21.7 33.9,21.3 L34.5,22.1 C34.1,22.5 33.6,23 33.1,23.4 Z M36.2,20.9 L35.6,20.1 C36.1,19.7 36.7,19.3 37.2,18.9 L37.8,19.7 C37.2,20.1 36.7,20.5 36.2,20.9 Z M39.4,18.5 L38.8,17.7 C39.3,17.3 39.9,16.9 40.4,16.6 L41,17.4 C40.4,17.7 39.9,18.1 39.4,18.5 Z M42.6,16.3 L42.1,15.5 C42.7,15.1 43.2,14.8 43.8,14.4 L44.3,15.3 C43.8,15.5 43.2,15.9 42.6,16.3 Z M46,14.2 L45.5,13.3 C46.1,13 46.7,12.6 47.2,12.3 L47.7,13.2 C47.2,13.5 46.6,13.8 46,14.2 Z M49.5,12.2 L49,11.3 C49.6,11 50.2,10.7 50.8,10.4 L51.2,11.3 C50.7,11.6 50.1,11.9 49.5,12.2 Z M53.1,10.5 L52.7,9.6 C53.3,9.3 53.9,9 54.5,8.8 L54.9,9.7 C54.3,9.9 53.7,10.2 53.1,10.5 Z M56.7,8.8 L56.3,7.9 C56.9,7.6 57.5,7.4 58.2,7.1 L58.6,8 C57.9,8.3 57.3,8.6 56.7,8.8 Z M60.4,7.4 L60.1,6.5 C60.7,6.3 61.4,6 62,5.8 L62.3,6.7 C61.6,6.9 61,7.2 60.4,7.4 Z M64.1,6.1 L63.8,5.1 C64.4,4.9 65.1,4.7 65.7,4.5 L66,5.5 C65.4,5.7 64.8,5.9 64.1,6.1 Z M68,5 L67.7,4 C68.3,3.8 69,3.7 69.6,3.5 L69.8,4.5 C69.2,4.6 68.6,4.8 68,5 Z M71.8,4 L71.6,3 L72.2,2.9 C72.7,2.8 73.1,2.7 73.6,2.6 L73.8,3.6 C73.3,3.7 72.9,3.8 72.4,3.9 L71.8,4 Z M75.7,3.2 L75.5,2.2 C76.2,2.1 76.8,2 77.5,1.9 L77.7,2.9 C77,3 76.4,3.1 75.7,3.2 Z M79.7,2.6 L79.6,1.6 C80.3,1.5 80.9,1.4 81.6,1.4 L81.7,2.4 C81,2.5 80.3,2.5 79.7,2.6 Z M83.6,2.2 L83.5,1.2 C84.2,1.1 84.8,1.1 85.5,1 L85.6,2 C84.9,2.1 84.3,2.1 83.6,2.2 Z M87.6,1.9 L87.6,0.9 C88.3,0.9 88.9,0.8 89.6,0.8 L89.6,1.8 C88.9,1.9 88.2,1.9 87.6,1.9 Z" id="Shape"></path>
                    </g>
                    <g id="Shape_203_" transform="translate(92.000000, 0.000000)" fill="#FFFFFF">
                        <path d="M90.1,115.2 L84.3,113.8 C87.4,101 87.5,88 84.7,75 C80.5,55.6 69.7,38.1 54.3,25.7 C39.1,13.5 20.1,6.6 0.7,6.3 L0.8,0.3 C21.5,0.6 41.9,7.9 58.1,21 C74.6,34.3 86.1,53 90.6,73.7 C93.5,87.6 93.4,101.5 90.1,115.2 Z" id="Shape"></path>
                    </g>
                    <g id="Shape_202_" transform="translate(14.000000, 16.000000)" fill="#FFFFFF">
                        <path d="M77.4,154.4 L76.2,154.4 L76.2,153.4 L77.4,153.4 L78.2,153.4 L78.2,154.4 L77.4,154.4 Z M80.3,154.4 L80.3,153.4 C81,153.4 81.6,153.3 82.3,153.3 L82.4,154.3 C81.6,154.3 80.9,154.3 80.3,154.4 Z M74.2,154.4 C73.5,154.4 72.9,154.3 72.2,154.3 L72.3,153.3 C73,153.3 73.6,153.4 74.3,153.4 L74.2,154.4 Z M84.3,154.1 L84.2,153.1 C84.9,153 85.5,153 86.2,152.9 L86.3,153.9 C85.6,154 84.9,154.1 84.3,154.1 Z M70.2,154.1 C69.5,154 68.9,154 68.2,153.9 L68.3,152.9 C69,153 69.6,153.1 70.3,153.1 L70.2,154.1 Z M88.3,153.6 L88.2,152.6 C88.9,152.5 89.5,152.4 90.2,152.3 L90.4,153.3 C89.6,153.4 88.9,153.5 88.3,153.6 Z M66.2,153.6 C65.5,153.5 64.9,153.4 64.2,153.3 L64.4,152.3 C65.1,152.4 65.7,152.5 66.4,152.6 L66.2,153.6 Z M92.2,153 L92,152 C92.6,151.9 93.3,151.7 93.9,151.6 L94.1,152.6 C93.6,152.7 92.9,152.8 92.2,153 Z M62.2,152.9 C61.5,152.8 60.9,152.6 60.2,152.5 L60.4,151.5 C61,151.6 61.7,151.8 62.3,151.9 L62.2,152.9 Z M96.2,152.1 L96,151.1 C96.6,150.9 97.3,150.8 97.9,150.6 L98.2,151.6 C97.5,151.8 96.8,151.9 96.2,152.1 Z M58.3,152 C57.6,151.8 57,151.7 56.4,151.5 L56.7,150.5 C57.3,150.7 58,150.9 58.6,151 L58.3,152 Z M100.1,151 L99.8,150 C100.4,149.8 101.1,149.6 101.7,149.4 L102,150.3 C101.3,150.6 100.7,150.8 100.1,151 Z M54.4,150.9 C53.8,150.7 53.1,150.5 52.5,150.3 L52.8,149.4 C53.4,149.6 54.1,149.8 54.7,150 L54.4,150.9 Z M103.9,149.7 L103.6,148.8 C104.2,148.6 104.8,148.3 105.5,148.1 L105.9,149 C105.1,149.3 104.5,149.5 103.9,149.7 Z M50.6,149.6 C50,149.4 49.3,149.1 48.7,148.9 L49.1,148 C49.7,148.2 50.3,148.5 51,148.7 L50.6,149.6 Z M107.6,148.2 L107.2,147.3 C107.8,147 108.4,146.8 109,146.5 L109.4,147.4 C108.8,147.7 108.2,148 107.6,148.2 Z M46.9,148.1 C46.3,147.8 45.7,147.6 45.1,147.3 L45.5,146.4 C46.1,146.7 46.7,147 47.3,147.2 L46.9,148.1 Z M111.3,146.6 L110.9,145.7 C111.5,145.4 112.1,145.1 112.7,144.8 L113.2,145.7 C112.5,146 111.9,146.3 111.3,146.6 Z M43.2,146.4 C42.6,146.1 42,145.8 41.4,145.5 L41.9,144.6 C42.5,144.9 43.1,145.2 43.7,145.5 L43.2,146.4 Z M114.8,144.7 L114.3,143.8 C114.9,143.5 115.5,143.1 116,142.8 L116.5,143.7 C116,144.1 115.4,144.4 114.8,144.7 Z M39.7,144.5 C39.1,144.2 38.5,143.8 38,143.5 L38.5,142.6 C39.1,142.9 39.6,143.3 40.2,143.6 L39.7,144.5 Z M118.3,142.7 L117.8,141.9 C118.4,141.5 118.9,141.2 119.5,140.8 L120.1,141.6 C119.4,142 118.9,142.3 118.3,142.7 Z M36.2,142.4 C35.6,142 35.1,141.7 34.5,141.3 L35.1,140.5 C35.6,140.9 36.2,141.2 36.8,141.6 L36.2,142.4 Z M121.6,140.4 L121,139.6 C121.5,139.2 122.1,138.8 122.6,138.4 L123.2,139.2 C122.7,139.7 122.2,140.1 121.6,140.4 Z M32.9,140.2 C32.4,139.8 31.8,139.4 31.3,139 L31.9,138.2 C32.4,138.6 33,139 33.5,139.4 L32.9,140.2 Z M124.9,138.1 L124.3,137.3 C124.8,136.9 125.3,136.5 125.8,136.1 L126.4,136.9 C125.9,137.2 125.4,137.6 124.9,138.1 Z M29.7,137.7 C29.2,137.3 28.7,136.9 28.1,136.4 L28.7,135.6 C29.2,136 29.7,136.4 30.2,136.9 L29.7,137.7 Z M128,135.5 L127.3,134.7 C127.8,134.3 128.3,133.8 128.8,133.4 L129.5,134.1 C129,134.6 128.5,135 128,135.5 Z M26.6,135.2 C26.1,134.8 25.6,134.3 25.1,133.9 L25.8,133.2 C26.3,133.7 26.8,134.1 27.3,134.5 L26.6,135.2 Z M130.9,132.8 L130.2,132.1 C130.7,131.6 131.1,131.2 131.6,130.7 L132.3,131.4 L130.9,132.8 Z M23.6,132.4 C23.1,131.9 22.6,131.5 22.2,131 L22.9,130.3 C23.4,130.8 23.8,131.2 24.3,131.7 L23.6,132.4 Z M133.7,129.9 L133,129.2 C133.5,128.7 133.9,128.2 134.3,127.7 L135.1,128.4 C134.6,128.9 134.2,129.4 133.7,129.9 Z M20.8,129.5 C20.3,129 19.9,128.5 19.5,128 L20.3,127.3 C20.7,127.8 21.2,128.3 21.6,128.8 L20.8,129.5 Z M136.4,126.9 L135.6,126.3 C136,125.8 136.4,125.3 136.9,124.8 L137.7,125.4 C137.2,125.8 136.8,126.3 136.4,126.9 Z M18.2,126.5 C17.8,126 17.4,125.5 16.9,124.9 L17.7,124.3 C18.1,124.8 18.5,125.3 18.9,125.8 L18.2,126.5 Z M138.9,123.7 L138.1,123.1 C138.5,122.6 138.9,122 139.3,121.5 L140.1,122.1 C139.7,122.6 139.3,123.2 138.9,123.7 Z M15.7,123.4 C15.3,122.9 14.9,122.3 14.5,121.8 L15.3,121.2 C15.7,121.7 16.1,122.3 16.5,122.8 L15.7,123.4 Z M141.2,120.4 L140.4,119.8 C140.8,119.3 141.1,118.7 141.5,118.1 L142.3,118.6 C142,119.3 141.6,119.9 141.2,120.4 Z M13.4,120.1 C13,119.5 12.7,119 12.3,118.4 L13.1,117.9 C13.5,118.5 13.8,119 14.2,119.6 L13.4,120.1 Z M11.3,116.7 C11,116.1 10.6,115.5 10.3,115 L11.2,114.5 C11.5,115.1 11.9,115.7 12.2,116.2 L11.3,116.7 Z M9.3,113.1 L8.4,111.3 L9.3,110.9 C9.6,111.5 9.9,112.1 10.2,112.7 L9.3,113.1 Z M7.6,109.5 C7.3,108.9 7.1,108.3 6.8,107.7 L7.7,107.3 C8,107.9 8.2,108.5 8.5,109.1 L7.6,109.5 Z M6,105.8 C5.8,105.2 5.5,104.6 5.3,103.9 L6.2,103.6 C6.4,104.2 6.7,104.8 6.9,105.5 L6,105.8 Z M4.6,102 C4.4,101.4 4.2,100.7 4,100.1 L5,99.8 C5.2,100.4 5.4,101.1 5.6,101.7 L4.6,102 Z M3.4,98.2 C3.2,97.6 3,96.9 2.9,96.3 L3.9,96.1 C4.1,96.7 4.2,97.4 4.4,98 L3.4,98.2 Z M2.4,94.3 C2.3,93.6 2.1,93 2,92.3 L3,92.1 C3.1,92.7 3.3,93.4 3.4,94 L2.4,94.3 Z M1.7,90.3 C1.6,89.6 1.5,89 1.4,88.3 L2.4,88.2 C2.5,88.9 2.6,89.5 2.7,90.2 L1.7,90.3 Z M1.1,86.4 C1,85.7 1,85.1 0.9,84.4 L1.9,84.3 C2,85 2,85.6 2.1,86.3 L1.1,86.4 Z M0.7,82.3 C0.7,81.6 0.6,81 0.6,80.3 L1.6,80.3 C1.6,81 1.7,81.6 1.7,82.3 L0.7,82.3 Z M0.6,78.3 L0.6,77.5 L0.6,76.3 L1.6,76.3 L1.6,77.5 L1.6,78.3 L0.6,78.3 Z M1.7,74.3 L0.7,74.3 C0.7,73.6 0.8,73 0.8,72.3 L1.8,72.4 C1.7,73 1.7,73.7 1.7,74.3 Z M1.9,70.3 L0.9,70.2 C1,69.5 1,68.9 1.1,68.2 L2.1,68.3 C2.1,69 2,69.7 1.9,70.3 Z M2.4,66.4 L1.4,66.3 C1.5,65.6 1.6,65 1.7,64.3 L2.7,64.5 C2.6,65.1 2.5,65.7 2.4,66.4 Z M3.1,62.5 L2.1,62.3 C2.2,61.6 2.4,61 2.5,60.3 L3.5,60.5 C3.4,61.2 3.2,61.8 3.1,62.5 Z M4,58.6 L3,58.3 C3.2,57.6 3.3,57 3.5,56.4 L4.5,56.7 C4.3,57.3 4.2,58 4,58.6 Z M5.1,54.8 L4.1,54.5 C4.3,53.9 4.5,53.2 4.7,52.6 L5.6,52.9 C5.5,53.5 5.3,54.1 5.1,54.8 Z M6.4,51 L5.5,50.6 C5.7,50 6,49.3 6.2,48.7 L7.1,49.1 C6.9,49.8 6.6,50.4 6.4,51 Z M7.9,47.3 L7,46.9 C7.3,46.3 7.5,45.7 7.8,45.1 L8.7,45.5 C8.4,46.1 8.2,46.7 7.9,47.3 Z M9.6,43.7 L8.7,43.3 L9.6,41.5 L10.5,42 C10.2,42.6 9.9,43.1 9.6,43.7 Z M11.4,40.2 L10.5,39.7 C10.8,39.1 11.2,38.5 11.5,38 L12.4,38.5 C12.1,39.1 11.8,39.7 11.4,40.2 Z M13.5,36.8 L12.7,36.3 C13.1,35.7 13.4,35.2 13.8,34.6 L14.6,35.2 C14.2,35.7 13.8,36.3 13.5,36.8 Z M15.7,33.5 L14.9,32.9 C15.3,32.4 15.7,31.8 16.1,31.3 L16.9,31.9 C16.5,32.5 16.1,33 15.7,33.5 Z M18.1,30.4 L17.3,29.8 C17.7,29.3 18.1,28.8 18.6,28.2 L19.4,28.8 C18.9,29.3 18.5,29.8 18.1,30.4 Z M20.6,27.3 L19.8,26.6 C20.2,26.1 20.7,25.6 21.2,25.1 L21.9,25.8 C21.5,26.3 21.1,26.8 20.6,27.3 Z M23.3,24.4 L22.6,23.7 C23.1,23.2 23.5,22.8 24,22.3 L24.7,23 C24.3,23.5 23.8,23.9 23.3,24.4 Z M26.2,21.7 L25.5,21 C26,20.5 26.5,20.1 27,19.7 L27.7,20.5 C27.2,20.8 26.7,21.2 26.2,21.7 Z M29.2,19 L28.6,18.2 C29.1,17.8 29.6,17.4 30.2,16.9 L30.8,17.7 C30.2,18.2 29.7,18.6 29.2,19 Z M32.3,16.6 L31.7,15.8 C32.2,15.4 32.8,15 33.3,14.6 L33.9,15.4 C33.4,15.8 32.8,16.2 32.3,16.6 Z M35.5,14.3 L34.9,13.5 C35.5,13.1 36,12.8 36.6,12.4 L37.1,13.2 C36.6,13.6 36.1,14 35.5,14.3 Z M38.9,12.2 L38.4,11.3 C39,11 39.6,10.6 40.1,10.3 L40.6,11.2 C40.1,11.6 39.5,11.9 38.9,12.2 Z M42.4,10.3 L41.9,9.4 C42.5,9.1 43.1,8.8 43.7,8.5 L44.1,9.4 C43.6,9.7 43,10 42.4,10.3 Z M46,8.6 L45.6,7.7 C46.2,7.4 46.8,7.2 47.4,6.9 L47.8,7.8 C47.2,8 46.6,8.3 46,8.6 Z M49.6,7 L49.2,6.1 C49.8,5.9 50.4,5.6 51.1,5.4 L51.4,6.3 C50.8,6.5 50.2,6.8 49.6,7 Z M53.3,5.7 L53,4.8 C53.6,4.6 54.3,4.4 54.9,4.2 L55.2,5.2 C54.6,5.2 54,5.5 53.3,5.7 Z M57.1,4.5 L56.8,3.5 C57.4,3.3 58.1,3.1 58.7,3 L58.9,4 C58.4,4.2 57.8,4.3 57.1,4.5 Z M61,3.5 L60.8,2.5 C61.5,2.4 62.1,2.2 62.8,2.1 L63,3.1 C62.3,3.3 61.7,3.4 61,3.5 Z M64.9,2.8 L64.7,1.8 C65.4,1.7 66,1.6 66.7,1.5 L66.8,2.5 C66.2,2.6 65.6,2.7 64.9,2.8 Z M68.8,2.2 L68.7,1.2 C69.4,1.1 70,1.1 70.7,1 L70.8,2 C70.2,2.1 69.5,2.1 68.8,2.2 Z M72.8,1.9 L72.7,0.9 C73.4,0.9 74,0.8 74.7,0.8 L74.7,1.8 C74.1,1.8 73.5,1.8 72.8,1.9 Z" id="Shape"></path>
                    </g>
                    <g id="Shape_201_" transform="translate(92.000000, 14.000000)" fill="#FFFFFF">
                        <path d="M68.7,118.3 L63.5,115.4 C73.1,98.3 75.4,78.5 70.1,59.7 C65.7,44.2 56.7,30.9 43.9,21.2 C31.5,11.8 16.2,6.5 0.8,6.3 L0.9,0.3 C17.6,0.6 34.2,6.3 47.6,16.4 C61.4,26.9 71.3,41.3 76,58 C81.5,78.4 79,99.8 68.7,118.3 Z" id="Shape"></path>
                    </g>
                    <g id="Shape_200_" transform="translate(92.000000, 27.000000)" fill="#FFFFFF">
                        <path d="M38.4,119.7 L34.9,114.9 C56.5,99 65,70.4 55.4,45.3 C46.7,22.3 25.2,7.2 0.6,6.7 L0.7,0.7 C27.7,1.2 51.4,17.9 61,43.2 C71.5,70.8 62.2,102.3 38.4,119.7 Z" id="Shape"></path>
                    </g>
                    <g id="Shape_199_" transform="translate(28.000000, 30.000000)" fill="#FFFFFF">
                        <path d="M63,127 L61,127 L61,126 L63,126 L63,127 Z M65,126.9 L65,125.9 C65.7,125.9 66.3,125.9 67,125.8 L67.1,126.8 C66.3,126.9 65.7,126.9 65,126.9 Z M58.9,126.8 C58.2,126.8 57.6,126.7 56.9,126.6 L57,125.6 C57.7,125.7 58.3,125.7 59,125.8 L58.9,126.8 Z M69,126.7 L68.9,125.7 C69.6,125.6 70.2,125.6 70.9,125.5 L71,126.5 C70.4,126.6 69.7,126.7 69,126.7 Z M54.9,126.4 C54.2,126.3 53.6,126.2 52.9,126.1 L53.1,125.1 C53.8,125.2 54.4,125.3 55.1,125.4 L54.9,126.4 Z M73,126.2 L72.8,125.2 C73.5,125.1 74.1,125 74.8,124.9 L75,125.9 C74.3,126 73.7,126.1 73,126.2 Z M51,125.7 C50.3,125.6 49.7,125.4 49,125.3 L49.2,124.3 C49.8,124.5 50.5,124.6 51.1,124.7 L51,125.7 Z M77,125.5 L76.8,124.5 C77.4,124.4 78.1,124.2 78.7,124 L78.9,125 C78.3,125.2 77.6,125.3 77,125.5 Z M47,124.8 C46.4,124.6 45.7,124.4 45.1,124.2 L45.4,123.2 C46,123.4 46.7,123.6 47.3,123.7 L47,124.8 Z M80.9,124.5 L80.6,123.5 C81.2,123.3 81.9,123.1 82.5,122.9 L82.8,123.9 C82.2,124.1 81.5,124.3 80.9,124.5 Z M43.2,123.6 C42.6,123.4 41.9,123.2 41.3,122.9 L41.6,122 C42.2,122.2 42.8,122.5 43.5,122.7 L43.2,123.6 Z M84.7,123.3 L84.4,122.4 C84.8,122.3 85.2,122.1 85.6,121.9 L86.2,121.7 L86.6,122.6 L86,122.8 C85.6,123 85.1,123.1 84.7,123.3 Z M39.4,122.2 C38.8,121.9 38.2,121.7 37.5,121.4 L37.9,120.5 C38.5,120.8 39.1,121 39.7,121.3 L39.4,122.2 Z M88.5,121.8 L88.1,120.9 C88.7,120.6 89.3,120.4 89.9,120.1 L90.3,121 C89.7,121.2 89.1,121.5 88.5,121.8 Z M35.7,120.6 C35.1,120.3 34.5,120 33.9,119.7 L34.4,118.8 C35,119.1 35.6,119.4 36.2,119.7 L35.7,120.6 Z M92.1,120.1 L91.6,119.2 C92.2,118.9 92.8,118.6 93.4,118.3 L93.9,119.2 C93.3,119.5 92.7,119.8 92.1,120.1 Z M32.2,118.7 C31.6,118.4 31,118 30.5,117.7 L31,116.8 C31.6,117.1 32.1,117.5 32.7,117.8 L32.2,118.7 Z M95.7,118.1 L95.2,117.2 C95.8,116.9 96.3,116.5 96.9,116.2 L97.4,117 C96.8,117.5 96.2,117.8 95.7,118.1 Z M28.7,116.6 C28.1,116.2 27.6,115.9 27,115.5 L27.6,114.7 C28.1,115.1 28.7,115.5 29.2,115.8 L28.7,116.6 Z M25.4,114.3 C24.9,113.9 24.3,113.5 23.8,113.1 L24.4,112.3 C24.9,112.7 25.4,113.1 26,113.5 L25.4,114.3 Z M22.3,111.8 C21.8,111.4 21.3,110.9 20.8,110.5 L21.5,109.8 C22,110.2 22.5,110.7 23,111.1 L22.3,111.8 Z M19.3,109.1 C18.8,108.6 18.3,108.2 17.9,107.7 L18.6,107 C19.1,107.5 19.5,107.9 20,108.4 L19.3,109.1 Z M16.5,106.2 C16,105.7 15.6,105.2 15.2,104.7 L16,104.1 C16.4,104.6 16.9,105.1 17.3,105.6 L16.5,106.2 Z M13.9,103.1 C13.5,102.6 13.1,102 12.7,101.5 L13.5,100.9 C13.9,101.4 14.3,102 14.7,102.5 L13.9,103.1 Z M11.5,99.9 C11.1,99.4 10.7,98.8 10.4,98.2 L11.2,97.7 C11.6,98.3 11.9,98.8 12.3,99.3 L11.5,99.9 Z M9.3,96.5 C9,95.9 8.6,95.3 8.3,94.8 L9.2,94.3 C9.5,94.9 9.9,95.4 10.2,96 L9.3,96.5 Z M7.3,93 L6.4,91.2 L7.3,90.8 C7.6,91.4 7.9,92 8.2,92.6 L7.3,93 Z M5.5,89.3 C5.2,88.7 5,88.1 4.7,87.4 L5.6,87 C5.9,87.6 6.1,88.2 6.4,88.8 L5.5,89.3 Z M4,85.6 C3.8,85 3.5,84.3 3.3,83.7 L4.2,83.4 C4.4,84 4.6,84.6 4.9,85.3 L4,85.6 Z M2.7,81.8 C2.5,81.2 2.3,80.5 2.1,79.9 L3.1,79.6 C3.3,80.2 3.5,80.9 3.6,81.5 L2.7,81.8 Z M1.7,77.9 C1.5,77.2 1.4,76.6 1.3,75.9 L2.3,75.7 C2.4,76.3 2.6,77 2.7,77.6 L1.7,77.9 Z M0.9,73.9 C0.8,73.2 0.7,72.6 0.6,71.9 L1.6,71.8 C1.7,72.5 1.8,73.1 1.9,73.8 L0.9,73.9 Z M0.4,69.9 L0.3,69.2 C0.3,68.8 0.2,68.3 0.2,67.9 L1.2,67.8 C1.2,68.2 1.3,68.7 1.3,69.1 L1.4,69.8 L0.4,69.9 Z M0.1,65.9 L0.1,63.9 L1.1,63.9 L1.1,65.9 L0.1,65.9 Z M1.1,61.9 L0.1,61.9 C0.1,61.2 0.1,60.6 0.2,59.9 L1.2,60 C1.1,60.6 1.1,61.3 1.1,61.9 Z M1.3,57.9 L0.3,57.8 C0.4,57.1 0.4,56.5 0.5,55.8 L1.5,55.9 C1.4,56.6 1.4,57.3 1.3,57.9 Z M1.8,54 L0.8,53.8 C0.9,53.1 1,52.5 1.1,51.8 L2.1,52 C2,52.7 1.9,53.4 1.8,54 Z M2.5,50.1 L1.5,49.9 C1.6,49.2 1.8,48.6 2,47.9 L3,48.1 C2.8,48.8 2.7,49.5 2.5,50.1 Z M3.5,46.3 L2.5,46 C2.7,45.4 2.9,44.7 3.1,44.1 L4.1,44.4 C3.9,45 3.7,45.6 3.5,46.3 Z M4.7,42.5 L3.8,42.2 C4,41.6 4.3,40.9 4.5,40.3 L5.4,40.7 C5.2,41.2 5,41.9 4.7,42.5 Z M6.2,38.8 L5.3,38.4 C5.6,37.8 5.8,37.2 6.1,36.6 L7,37 C6.7,37.6 6.5,38.2 6.2,38.8 Z M7.9,35.2 L7,34.7 L7.9,32.9 L8.8,33.4 C8.5,34 8.2,34.6 7.9,35.2 Z M9.8,31.7 L8.9,31.2 C9.2,30.6 9.6,30.1 10,29.5 L10.8,30 C10.5,30.6 10.1,31.2 9.8,31.7 Z M11.9,28.4 L11.1,27.8 C11.5,27.2 11.9,26.7 12.3,26.2 L13.1,26.8 C12.7,27.3 12.3,27.8 11.9,28.4 Z M14.3,25.2 L13.5,24.6 C13.9,24.1 14.3,23.5 14.8,23 L15.6,23.6 C15.1,24.1 14.7,24.7 14.3,25.2 Z M16.8,22.1 L16.1,21.4 C16.5,20.9 17,20.4 17.5,19.9 L18.2,20.6 C17.7,21.2 17.2,21.6 16.8,22.1 Z M19.5,19.3 L18.8,18.6 C19.3,18.1 19.8,17.7 20.3,17.2 L21,17.9 C20.5,18.3 20,18.8 19.5,19.3 Z M22.4,16.6 L21.7,15.8 C22.2,15.4 22.7,14.9 23.2,14.5 L23.8,15.3 C23.4,15.7 22.9,16.1 22.4,16.6 Z M25.5,14.1 L24.9,13.3 C25.4,12.9 26,12.5 26.5,12.1 L27.1,12.9 C26.5,13.3 26,13.7 25.5,14.1 Z M28.7,11.7 L28.1,10.9 C28.7,10.5 29.2,10.2 29.8,9.8 L30.3,10.6 C29.8,11 29.2,11.4 28.7,11.7 Z M32.1,9.6 L31.6,8.7 C32.2,8.4 32.8,8 33.4,7.7 L33.9,8.6 C33.2,9 32.6,9.3 32.1,9.6 Z M35.6,7.8 L35.2,6.9 C35.8,6.6 36.4,6.3 37,6 L37.4,6.9 C36.7,7.2 36.1,7.5 35.6,7.8 Z M39.2,6.1 L38.8,5.2 C39.4,4.9 40,4.7 40.7,4.4 L41.1,5.3 C40.4,5.6 39.8,5.9 39.2,6.1 Z M42.9,4.7 L42.6,3.8 C43.2,3.6 43.9,3.4 44.5,3.2 L44.8,4.2 C44.1,4.3 43.5,4.5 42.9,4.7 Z M46.6,3.5 L46.3,2.5 C46.9,2.3 47.6,2.1 48.3,2 L48.5,3 C47.9,3.1 47.3,3.3 46.6,3.5 Z M50.5,2.5 L50.3,1.5 C51,1.4 51.6,1.2 52.3,1.1 L52.5,2.1 C51.8,2.3 51.1,2.4 50.5,2.5 Z M54.4,1.8 L54.3,0.8 C55,0.7 55.6,0.6 56.3,0.5 L56.4,1.5 C55.7,1.7 55.1,1.7 54.4,1.8 Z M58.3,1.4 L58.2,0.4 C58.9,0.3 59.5,0.3 60.2,0.3 L60.3,1.3 C59.7,1.3 59,1.3 58.3,1.4 Z" id="Shape"></path>
                    </g>
                    <g id="Shape_198_" transform="translate(40.000000, 43.000000)" fill="#FFFFFF">
                        <path d="M47.2,101.1 C46.5,101 45.9,101 45.2,100.9 L45.3,99.9 C46,100 46.6,100.1 47.3,100.1 L47.2,101.1 Z M43.1,100.6 C42.4,100.5 41.8,100.4 41.1,100.2 L41.3,99.2 C41.9,99.3 42.6,99.5 43.2,99.6 L43.1,100.6 Z M39.2,99.7 C38.5,99.5 37.9,99.4 37.2,99.2 L37.5,98.2 C38.1,98.4 38.8,98.6 39.4,98.7 L39.2,99.7 Z M35.3,98.6 C34.7,98.4 34,98.2 33.4,97.9 L33.8,97 C34.4,97.2 35,97.5 35.7,97.7 L35.3,98.6 Z M31.5,97.2 C30.9,96.9 30.3,96.7 29.7,96.4 L30.1,95.5 C30.7,95.8 31.3,96.1 31.9,96.3 L31.5,97.2 Z M27.9,95.4 C27.3,95.1 26.7,94.8 26.1,94.4 L26.6,93.5 C27.2,93.8 27.8,94.1 28.3,94.5 L27.9,95.4 Z M24.4,93.4 C23.8,93 23.3,92.7 22.7,92.3 L23.3,91.5 C23.8,91.9 24.4,92.2 25,92.6 L24.4,93.4 Z M21.1,91.1 C20.6,90.7 20,90.3 19.5,89.9 L20.1,89.1 C20.6,89.5 21.1,89.9 21.7,90.3 L21.1,91.1 Z M17.9,88.6 C17.4,88.2 16.9,87.7 16.4,87.2 L17.1,86.5 C17.6,87 18.1,87.4 18.6,87.8 L17.9,88.6 Z M15,85.8 C14.5,85.3 14.1,84.8 13.6,84.3 L14.3,83.6 C14.7,84.1 15.2,84.6 15.6,85.1 L15,85.8 Z M12.3,82.8 C11.9,82.3 11.5,81.8 11.1,81.2 L11.9,80.6 C12.3,81.1 12.7,81.6 13.1,82.2 L12.3,82.8 Z M9.9,79.6 C9.5,79.1 9.1,78.5 8.8,77.9 L9.6,77.4 C10,78 10.3,78.5 10.7,79 L9.9,79.6 Z M7.7,76.2 C7.4,75.7 7.2,75.3 6.9,74.8 L6.7,74.4 L7.6,73.9 L7.8,74.3 C8.1,74.8 8.3,75.2 8.6,75.7 L7.7,76.2 Z M5.8,72.6 C5.5,72 5.2,71.4 5,70.8 L5.9,70.4 C6.2,71 6.4,71.6 6.7,72.2 L5.8,72.6 Z M4.2,68.9 C4,68.3 3.7,67.6 3.5,67 L4.4,66.7 C4.6,67.3 4.8,67.9 5.1,68.6 L4.2,68.9 Z M2.9,65.1 C2.7,64.5 2.5,63.8 2.4,63.2 L3.4,63 C3.6,63.6 3.7,64.3 3.9,64.9 L2.9,65.1 Z M1.9,61.2 C1.8,60.5 1.6,59.9 1.5,59.2 L2.5,59 C2.6,59.7 2.7,60.3 2.9,60.9 L1.9,61.2 Z M1.2,57.2 C1.1,56.5 1,55.9 1,55.2 L2,55.1 C2.1,55.8 2.1,56.4 2.2,57.1 L1.2,57.2 Z M0.8,53.2 C0.8,52.5 0.7,51.9 0.7,51.2 L1.7,51.2 C1.7,51.9 1.7,52.5 1.8,53.2 L0.8,53.2 Z M1.8,49.1 L0.8,49.1 C0.8,48.4 0.9,47.8 0.9,47.1 L1.9,47.2 C1.8,47.8 1.8,48.5 1.8,49.1 Z M2.1,45.2 L1.1,45.1 C1.2,44.4 1.3,43.8 1.4,43.1 L2.4,43.2 C2.2,43.9 2.1,44.5 2.1,45.2 Z M2.6,41.3 L1.6,41.1 C1.7,40.4 1.9,39.8 2,39.1 L3,39.3 C2.9,40 2.8,40.6 2.6,41.3 Z M3.5,37.4 L2.5,37.1 C2.7,36.5 2.9,35.8 3.1,35.2 L4.1,35.5 C3.9,36.2 3.7,36.8 3.5,37.4 Z M4.7,33.6 L3.8,33.3 C4,32.7 4.3,32 4.5,31.4 L5.4,31.8 C5.2,32.4 5,33 4.7,33.6 Z M6.2,30 L5.3,29.6 L6.2,27.8 L7.1,28.2 C6.8,28.8 6.5,29.4 6.2,30 Z M8,26.5 L7.1,26 C7.4,25.4 7.8,24.8 8.1,24.3 L9,24.8 C8.7,25.3 8.3,25.9 8,26.5 Z M10.1,23.1 L9.3,22.5 C9.7,21.9 10.1,21.4 10.4,20.8 L11.2,21.4 C10.8,22 10.4,22.5 10.1,23.1 Z M12.4,19.9 L11.6,19.3 C12,18.8 12.4,18.3 12.9,17.7 L13.7,18.3 C13.2,18.8 12.8,19.3 12.4,19.9 Z M15,16.9 L14.3,16.2 C14.8,15.7 15.2,15.2 15.7,14.7 L16.4,15.4 C15.9,15.9 15.4,16.4 15,16.9 Z M17.8,14.1 L17.1,13.4 C17.6,12.9 18.1,12.5 18.6,12.1 L19.2,12.9 C18.7,13.2 18.2,13.6 17.8,14.1 Z M20.8,11.5 L20.2,10.7 C20.7,10.3 21.3,9.9 21.8,9.5 L22.4,10.3 C21.8,10.7 21.3,11.1 20.8,11.5 Z M24,9.2 L23.4,8.4 C24,8 24.5,7.7 25.1,7.3 L25.6,8.2 C25.1,8.5 24.5,8.8 24,9.2 Z M27.4,7.1 L26.9,6.2 L27.3,6 C27.8,5.7 28.2,5.5 28.7,5.3 L29.1,6.2 C28.6,6.4 28.2,6.7 27.7,6.9 L27.4,7.1 Z M30.9,5.3 L30.5,4.4 C31.1,4.1 31.7,3.9 32.4,3.6 L32.8,4.5 C32.1,4.8 31.5,5.1 30.9,5.3 Z M34.6,3.9 L34.3,3 C34.9,2.8 35.6,2.6 36.2,2.3 L36.5,3.3 C35.8,3.4 35.2,3.6 34.6,3.9 Z M38.3,2.7 L38,1.7 C38.7,1.5 39.3,1.4 40,1.2 L40.2,2.2 C39.6,2.3 39,2.5 38.3,2.7 Z M42.2,1.8 L42,0.8 C42.7,0.7 43.3,0.6 44,0.5 L44.1,1.5 C43.5,1.5 42.8,1.6 42.2,1.8 Z M46.1,1.2 L46,0.2 C46.7,0.1 47.3,0.1 48,0 L48.1,1 C47.4,1 46.8,1.1 46.1,1.2 Z" id="Shape"></path>
                    </g>
                    <g id="Shape_197_" transform="translate(91.000000, 40.000000)" fill="#FFFFFF">
                        <path d="M0.5,106.7 L0.5,106.7 L0.5,100.7 L0.5,100.7 C8.3,100.7 16.1,98.7 23,95 C45.8,82.6 54.3,53.9 41.9,31 C33.9,16.2 18.5,6.8 1.6,6.4 L1.8,0.4 C20.7,0.9 38.1,11.5 47.2,28.2 C54,40.7 55.5,55 51.5,68.7 C47.5,82.3 38.4,93.6 25.9,100.3 C18,104.5 9.3,106.7 0.5,106.7 Z" id="Shape"></path>
                    </g>
                    <g id="Shape_196_" transform="translate(52.000000, 54.000000)" fill="#FFFFFF">
                        <path d="M3.5,55.9 C3.2,55.3 3,54.7 2.7,54 L3.6,53.6 C3.8,54.2 4.1,54.8 4.4,55.4 L3.5,55.9 Z M2,52.1 C1.8,51.5 1.6,50.8 1.4,50.2 L2.4,49.9 C2.6,50.5 2.8,51.2 3,51.8 L2,52.1 Z M0.9,48.2 C0.8,47.5 0.6,46.9 0.5,46.2 L1.5,46 C1.6,46.6 1.7,47.3 1.9,47.9 L0.9,48.2 Z M0.3,44.2 C0.2,43.5 0.2,42.9 0.1,42.2 L1.1,42.1 C1.1,42.8 1.2,43.4 1.3,44.1 L0.3,44.2 Z M0,40.2 L0,39.6 L0,38.2 L1,38.2 L1,39.6 L1,40.2 L0,40.2 Z M1.1,36.2 L0.1,36.1 C0.2,35.4 0.2,34.8 0.3,34.1 L1.3,34.2 C1.3,34.9 1.2,35.5 1.1,36.2 Z M1.7,32.3 L0.7,32.1 C0.8,31.4 1,30.8 1.1,30.1 L2.1,30.3 C2,31 1.8,31.7 1.7,32.3 Z M2.6,28.5 L1.6,28.2 C1.8,27.6 2,26.9 2.2,26.3 L3.1,26.6 C3,27.2 2.8,27.8 2.6,28.5 Z M4,24.7 L3.1,24.3 C3.4,23.7 3.6,23.1 3.9,22.5 L4.8,22.9 C4.5,23.5 4.2,24.1 4,24.7 Z M5.7,21.2 L4.8,20.7 C5.1,20.1 5.5,19.5 5.8,18.9 L6.7,19.4 C6.3,20 6,20.6 5.7,21.2 Z M7.7,17.8 L6.9,17.2 C7.3,16.6 7.7,16.1 8.1,15.6 L8.9,16.2 C8.5,16.8 8.1,17.3 7.7,17.8 Z M10.1,14.7 L9.3,14.1 C9.7,13.6 10.2,13.1 10.6,12.6 L11.3,13.3 C11,13.7 10.6,14.2 10.1,14.7 Z M12.8,11.8 L12.1,11.1 C12.6,10.7 13,10.2 13.5,9.8 L14.2,10.5 L14.1,10.6 C13.7,11 13.3,11.4 12.8,11.8 Z M15.8,9.2 L15.2,8.4 C15.7,8 16.3,7.6 16.8,7.2 L17.4,8 C16.9,8.4 16.3,8.8 15.8,9.2 Z M19.1,7 L18.6,6.2 C19.2,5.8 19.8,5.5 20.3,5.2 L20.8,6.1 C20.2,6.3 19.6,6.6 19.1,7 Z M22.5,5.1 L22.1,4.2 C22.7,3.9 23.3,3.6 23.9,3.4 L24.3,4.3 C23.7,4.5 23.1,4.8 22.5,5.1 Z M26.1,3.5 L25.8,2.6 C26.4,2.4 27.1,2.1 27.7,1.9 L28,2.9 C27.4,3.1 26.7,3.3 26.1,3.5 Z M29.9,2.3 L29.7,1.3 C30.4,1.1 31,1 31.7,0.8 L31.9,1.8 C31.2,2 30.5,2.2 29.9,2.3 Z M33.8,1.5 L33.7,0.5 C34.4,0.4 35,0.3 35.7,0.3 L35.8,1.3 C35.1,1.4 34.4,1.5 33.8,1.5 Z M37.7,1.2 L37.7,0.2 L38,0.2 L38,1.2 L37.7,1.2 Z" id="Shape"></path>
                    </g>
                    <g id="Shape_195_" transform="translate(55.000000, 51.000000)" fill="#33C69B">
                        <path d="M36.5,84.5 C24.8,84.5 13.1,79.6 4.8,70.1 C3.1,68.2 1.6,66.1 0.3,63.9 L5.5,60.8 C6.6,62.7 7.9,64.5 9.3,66.1 C22.3,81.1 45,82.6 60,69.6 C75,56.6 76.5,33.9 63.5,18.9 C57,11.4 47.5,6.9 37.6,6.6 L37.8,0.6 C49.4,1 60.5,6.2 68.1,15 C83.3,32.5 81.4,59 64,74.2 C56,81.1 46.2,84.5 36.5,84.5 Z" id="Shape"></path>
                    </g>
                    <g id="Oval_20_" transform="translate(61.000000, 63.000000)" fill="#F3492D">
                        <path d="M30.4,60.8 C13.7,60.8 0.2,47.3 0.2,30.6 C0.2,13.9 13.7,0.4 30.4,0.4 C47.1,0.4 60.6,13.9 60.6,30.6 C60.6,47.3 47.1,60.8 30.4,60.8 Z M30.4,6.4 C17.1,6.4 6.2,17.3 6.2,30.6 C6.2,43.9 17.1,54.8 30.4,54.8 C43.7,54.8 54.6,43.9 54.6,30.6 C54.6,17.3 43.8,6.4 30.4,6.4 Z" id="Shape"></path>
                    </g>
                </g>
            </g>
        </g>
    </g>
</svg>