<?xml version="1.0" encoding="utf-8"?>
<!-- Generator: Adobe Illustrator 21.0.0, SVG Export Plug-In . SVG Version: 6.00 Build 0)  -->
<svg version="1.1" id="图层_1" xmlns="http://www.w3.org/2000/svg" xmlns:xlink="http://www.w3.org/1999/xlink" x="0px" y="0px"
	 viewBox="0 0 1123.6 459" style="enable-background:new 0 0 1123.6 459;" xml:space="preserve">
<style type="text/css">
	.st0{fill:#FFFFFF;}
	.st1{fill:#F3492D;}
</style>
<g>
	<g>
		<g>
			<rect x="118.3" y="207.7" class="st0" width="15.2" height="67.6"/>
			<rect x="266" y="185.3" class="st0" width="15.2" height="67.6"/>
			<polygon class="st0" points="128.1,179.8 127.9,179.7 120.3,193 178.3,226.7 178.4,226.8 186,213.5 			"/>
			<polygon class="st0" points="221.2,233.9 221,233.8 213.4,247.1 271.4,280.8 271.6,280.9 279.2,267.6 			"/>
		</g>
		<g>
			<g>
				<rect x="195.6" y="14.7" class="st1" width="8.3" height="23.3"/>
			</g>
			<g>
				<polygon class="st1" points="159.9,40.3 180,51.9 184.2,44.7 164.1,33 				"/>
			</g>
			<g>
				<polygon class="st1" points="235.4,33 215.3,44.7 219.5,51.9 239.6,40.3 				"/>
			</g>
			<g>
				<rect x="120.3" y="122" class="st1" width="11.1" height="44.8"/>
			</g>
			<g>
				<polygon class="st1" points="66.9,159.6 105.4,182 111,172.3 72.4,149.9 				"/>
			</g>
			<g>
				<polygon class="st1" points="72.4,224.9 111,202.5 105.4,192.8 66.9,215.2 				"/>
			</g>
			<g>
				<rect x="194.2" y="79.1" class="st1" width="11.1" height="44.8"/>
			</g>
			<g>
				<polygon class="st1" points="140.8,116.6 179.3,139 184.9,129.3 146.3,106.9 				"/>
			</g>
			<g>
				<polygon class="st1" points="146.3,182 184.9,159.6 179.3,149.9 140.8,172.3 				"/>
			</g>
			<g>
				<rect x="194.2" y="165" class="st1" width="11.1" height="44.8"/>
			</g>
			<g>
				<polygon class="st1" points="258.7,172.3 220.2,149.9 214.6,159.6 253.2,182 				"/>
			</g>
			<g>
				<polygon class="st1" points="253.2,106.9 214.6,129.3 220.2,139 258.7,116.6 				"/>
			</g>
			<g>
				<rect x="194.2" y="250.8" class="st1" width="11.1" height="44.8"/>
			</g>
			<g>
				<polygon class="st1" points="140.8,288.3 179.3,310.7 184.9,301 146.3,278.6 				"/>
			</g>
			<g>
				<polygon class="st1" points="146.3,353.7 184.9,331.3 179.3,321.6 140.8,344 				"/>
			</g>
			<g>
				<rect x="194.2" y="336.7" class="st1" width="11.1" height="44.8"/>
			</g>
			<g>
				<polygon class="st1" points="258.7,344 220.2,321.6 214.6,331.3 253.2,353.7 				"/>
			</g>
			<g>
				<polygon class="st1" points="253.2,278.6 214.6,301 220.2,310.7 258.7,288.3 				"/>
			</g>
			<g>
				<rect x="268.1" y="293.8" class="st1" width="11.1" height="44.8"/>
			</g>
			<g>
				<polygon class="st1" points="332.6,301 294.1,278.6 288.5,288.3 327.1,310.7 				"/>
			</g>
			<g>
				<polygon class="st1" points="327.1,235.7 288.5,258.1 294.1,267.8 332.6,245.4 				"/>
			</g>
			<g>
				<polygon class="st1" points="66.9,245.4 105.4,267.8 111,258.1 72.4,235.7 				"/>
			</g>
			<g>
				<rect x="120.3" y="293.8" class="st1" width="11.1" height="44.8"/>
			</g>
			<g>
				<rect x="268.1" y="122" class="st1" width="11.1" height="44.8"/>
			</g>
			<g>
				<polygon class="st1" points="220.2,224.9 258.7,202.5 253.2,192.8 214.6,215.2 				"/>
			</g>
			<g>
				<polygon class="st1" points="332.6,215.2 294.1,192.8 288.5,202.5 327,224.9 				"/>
			</g>
			<g>
				<polygon class="st1" points="327,149.9 288.5,172.3 294.1,182 332.6,159.6 				"/>
			</g>
			<g>
				<polygon class="st1" points="179.3,235.7 140.7,258.1 146.3,267.8 184.8,245.4 				"/>
			</g>
			<g>
				<polygon class="st1" points="105.4,278.6 66.8,301 72.4,310.7 110.9,288.3 				"/>
			</g>
			<g>
				<rect x="121.8" y="57.6" class="st1" width="8.3" height="23.3"/>
			</g>
			<g>
				<polygon class="st1" points="86.1,83.2 106.2,94.9 110.4,87.6 90.3,75.9 				"/>
			</g>
			<g>
				<polygon class="st1" points="184.2,72.5 180,65.2 141.5,87.6 145.7,94.9 				"/>
			</g>
			<g>
				<rect x="48" y="100.6" class="st1" width="8.3" height="23.3"/>
			</g>
			<g>
				<polygon class="st1" points="12.3,126.1 32.4,137.8 36.6,130.5 16.5,118.9 				"/>
			</g>
			<g>
				<polygon class="st1" points="16.5,170 36.6,158.3 32.4,151.1 12.3,162.7 				"/>
			</g>
			<g>
				<polygon class="st1" points="110.4,115.4 106.2,108.1 67.7,130.5 71.9,137.8 				"/>
			</g>
			<g>
				<rect x="48" y="165" class="st1" width="8.3" height="44.8"/>
			</g>
			<g>
				<polygon class="st1" points="12.3,212 32.4,223.7 36.6,216.4 16.5,204.7 				"/>
			</g>
			<g>
				<polygon class="st1" points="16.5,255.9 36.6,244.2 32.4,236.9 12.3,248.6 				"/>
			</g>
			<g>
				<rect x="48" y="250.8" class="st1" width="8.3" height="44.8"/>
			</g>
			<g>
				<polygon class="st1" points="12.3,297.9 32.4,309.5 36.6,302.3 16.5,290.6 				"/>
			</g>
			<g>
				<polygon class="st1" points="16.5,341.7 36.6,330.1 32.4,322.8 12.3,334.5 				"/>
			</g>
			<g>
				<rect x="48" y="336.7" class="st1" width="8.3" height="23.3"/>
			</g>
			<g>
				<polygon class="st1" points="71.9,322.8 67.7,330.1 106.2,352.5 110.4,345.2 				"/>
			</g>
			<g>
				<polygon class="st1" points="90.3,384.7 110.4,373 106.2,365.7 86.1,377.4 				"/>
			</g>
			<g>
				<rect x="121.8" y="379.6" class="st1" width="8.3" height="23.3"/>
			</g>
			<g>
				<polygon class="st1" points="145.7,365.7 141.5,373 180,395.4 184.2,388.1 				"/>
			</g>
			<g>
				<polygon class="st1" points="164.1,427.6 184.2,415.9 180,408.6 159.9,420.3 				"/>
			</g>
			<g>
				<rect x="195.6" y="422.5" class="st1" width="8.3" height="23.3"/>
			</g>
			<g>
				<polygon class="st1" points="239.6,420.3 219.5,408.6 215.3,415.9 235.4,427.6 				"/>
			</g>
			<g>
				<polygon class="st1" points="258.1,373 253.9,365.7 215.3,388.1 219.5,395.4 				"/>
			</g>
			<g>
				<rect x="269.5" y="379.6" class="st1" width="8.3" height="23.3"/>
			</g>
			<g>
				<polygon class="st1" points="313.5,377.4 293.4,365.7 289.2,373 309.3,384.7 				"/>
			</g>
			<g>
				<polygon class="st1" points="331.9,330.1 327.8,322.8 289.2,345.2 293.4,352.5 				"/>
			</g>
			<g>
				<rect x="343.3" y="336.7" class="st1" width="8.3" height="23.3"/>
			</g>
			<g>
				<polygon class="st1" points="387.3,334.5 367.3,322.8 363.1,330.1 383.2,341.7 				"/>
			</g>
			<g>
				<polygon class="st1" points="383.2,290.6 363.1,302.3 367.3,309.5 387.3,297.9 				"/>
			</g>
			<g>
				<rect x="343.3" y="250.8" class="st1" width="8.3" height="44.8"/>
			</g>
			<g>
				<polygon class="st1" points="387.3,248.6 367.3,236.9 363.1,244.2 383.2,255.9 				"/>
			</g>
			<g>
				<polygon class="st1" points="383.2,204.7 363.1,216.4 367.3,223.7 387.3,212 				"/>
			</g>
			<g>
				<rect x="343.3" y="100.7" class="st1" width="8.3" height="23.3"/>
			</g>
			<g>
				<rect x="343.3" y="165.1" class="st1" width="8.3" height="44.7"/>
			</g>
			<g>
				<polygon class="st1" points="387.3,162.8 367.3,151.2 363.1,158.4 383.2,170.1 				"/>
			</g>
			<g>
				<polygon class="st1" points="383.2,119 363.1,130.6 367.3,137.9 387.3,126.2 				"/>
			</g>
			<g>
				<rect x="269.4" y="57.7" class="st1" width="8.3" height="23.3"/>
			</g>
			<g>
				<polygon class="st1" points="219.5,65.2 215.3,72.5 253.9,94.9 258,87.7 				"/>
			</g>
			<g>
				<polygon class="st1" points="293.4,108.2 289.2,115.5 327.8,137.9 331.9,130.6 				"/>
			</g>
			<g>
				<polygon class="st1" points="309.3,76 289.2,87.7 293.4,94.9 313.4,83.3 				"/>
			</g>
		</g>
	</g>
	<g>
		<polygon class="st0" points="546.9,169.4 546.9,252.8 466.1,163.9 466.1,295.8 484.6,295.8 484.6,212.2 565.4,300.7 565.4,169.4 
					"/>
		<polygon class="st0" points="612,279.4 612,235 661.6,235 661.6,218.6 612,218.6 612,185.7 666.6,185.7 666.6,169.4 593.7,169.4 
			593.7,295.8 668.3,295.8 668.3,279.4 		"/>
		<path class="st0" d="M740.8,244.1c16.5-5.1,27.2-19.5,27.2-37c0-22.2-16-37.7-39-37.7h-38v126.4h18.4v-50.5H721l34.2,50.3l0.1,0.2
			h22L740.8,244.1z M749.5,207.1c0,7-2.1,12.9-6,16.7c-3.7,3.6-9,5.5-15.2,5.5h-18.9v-43.6H729c3.6,0,8.8,0.7,13.2,3.9
			C747,193.2,749.5,199.1,749.5,207.1z"/>
		<polygon class="st0" points="873.8,169.4 839.4,255.2 801.2,169.7 801,169.4 781,169.4 839.4,300.1 894,169.4 		"/>
		<path class="st1" d="M960.1,168.1c-34.4,0-60.4,27.6-60.4,64.3c0,37.4,25.5,64.6,60.5,64.6s60.4-27.2,60.4-64.6
			C1020.7,195.8,994.6,168.1,960.1,168.1z M1002.2,232.4c0,14.2-5.5,28.2-14.6,37.2c-7.6,7.4-17,11.2-27.5,11
			c-20.9-0.4-42.1-17.1-42.1-48.2c0-12.2,4.3-24.4,11.8-33.3c7.9-9.4,18.7-14.6,30.3-14.6C986.1,184.5,1002.2,209.4,1002.2,232.4z"
			/>
		<path class="st0" d="M1081.1,219.8c-6.9-2.5-23.1-9.3-23.1-18.2c0-10.5,7.4-17.1,19.3-17.1c7.3,0,14.4,4,18.1,8l0.3,0.3l13.6-10.6
			l-0.4-0.4c-7.8-8.6-19.9-13.9-31.7-13.9c-28.5,0-38.6,17.4-38.6,33.7c0,17.5,16.5,26.7,32.7,33.4c19.6,8.2,25.3,13.6,25.3,24.3
			c0,6.1-1.8,11.1-5.5,14.9c-4.3,4.2-10.4,6.4-18.3,6.4c-3.2,0-8-0.6-12.8-3.4c-4.7-2.6-8.4-7-11.1-12.9l-0.2-0.4l-17.9,4.1l0.2,0.5
			c9.1,23.5,28.2,28.4,42.5,28.4c25.4,0,42.4-15.1,42.4-37.6C1116.1,240.9,1105.3,228.7,1081.1,219.8z"/>
	</g>
</g>
</svg>
