<svg xmlns="http://www.w3.org/2000/svg" viewBox="0 0 62.23 62">
    <defs>
        <style>
            svg {
                cursor: pointer;
            }
            .cls-1 {
                fill: #fff;
            }

            svg:hover .cls-1 {
                fill: #333;
            }

            .cls-2 {
                fill: #4c4c4c;
            }

            svg:hover .cls-2 {
                fill: #36cc92;
            }
            
        </style>
    </defs>
    <title>资源 2</title>
    <g id="图层_2" data-name="图层 2">
        <g id="Layer_1" data-name="Layer 1">
            <circle class="cls-1" cx="30.95" cy="31.55" r="30.45" />
            <path class="cls-2" d="M58.06,15.5A31,31,0,0,0,46.73,4.17,30.43,30.43,0,0,0,31.12,0,30.44,30.44,0,0,0,15.5,4.17,31,31,0,0,0,4.17,15.5,30.44,30.44,0,0,0,0,31.12,30.25,30.25,0,0,0,5.93,49.41,30.48,30.48,0,0,0,21.27,60.65a1.81,1.81,0,0,0,1.62-.28,1.59,1.59,0,0,0,.53-1.22q0-.12,0-2.19t0-3.61l-.93.16a11.76,11.76,0,0,1-2.25.14,17,17,0,0,1-2.82-.28,6.27,6.27,0,0,1-2.71-1.21,5.13,5.13,0,0,1-1.78-2.49l-.41-.93a10.11,10.11,0,0,0-1.27-2.07,4.93,4.93,0,0,0-1.76-1.54l-.28-.2a3,3,0,0,1-.53-.49,2.15,2.15,0,0,1-.36-.57c-.08-.19,0-.34.2-.47a2.6,2.6,0,0,1,1.18-.18l.81.12a5.9,5.9,0,0,1,2,1,6.55,6.55,0,0,1,2,2.11A7.15,7.15,0,0,0,16.67,49a4.78,4.78,0,0,0,2.65.87,11.63,11.63,0,0,0,2.31-.2A8.12,8.12,0,0,0,23.46,49a6.57,6.57,0,0,1,2-4.17,27.62,27.62,0,0,1-4.15-.73,16.38,16.38,0,0,1-3.81-1.58,10.91,10.91,0,0,1-3.26-2.71,13.06,13.06,0,0,1-2.12-4.25,20.24,20.24,0,0,1-.83-6.08,11.82,11.82,0,0,1,3.2-8.35,10.87,10.87,0,0,1,.28-8.26,5.67,5.67,0,0,1,3.48.55A24.56,24.56,0,0,1,21.61,15c.72.43,1.29.8,1.72,1.1a29.25,29.25,0,0,1,15.56,0l1.54-1a21.77,21.77,0,0,1,3.73-1.78,5.32,5.32,0,0,1,3.28-.44,10.79,10.79,0,0,1,.32,8.27A11.81,11.81,0,0,1,51,29.49a20.43,20.43,0,0,1-.83,6.1A12.49,12.49,0,0,1,48,39.84a11.33,11.33,0,0,1-3.28,2.7,16.49,16.49,0,0,1-3.81,1.58,27.62,27.62,0,0,1-4.15.73q2.11,1.82,2.11,5.75v8.55a1.61,1.61,0,0,0,.51,1.21,1.76,1.76,0,0,0,1.6.28A30.46,30.46,0,0,0,56.29,49.4a30.23,30.23,0,0,0,5.94-18.29A30.48,30.48,0,0,0,58.06,15.5Zm0,0"
            />
        </g>
    </g>
</svg>